<?xml version="1.0" encoding="iso-8859-1"?>
<!-- Generator: Adobe Illustrator 19.0.0, SVG Export Plug-In . SVG Version: 6.00 Build 0)  -->
<svg version="1.1" id="Capa_1" xmlns="http://www.w3.org/2000/svg" xmlns:xlink="http://www.w3.org/1999/xlink" x="0px" y="0px"
	 viewBox="0 0 512 512" style="enable-background:new 0 0 512 512;" xml:space="preserve">
<g>
	<g transform="translate(1 1)">
		<g>
			<rect x="374.467" y="24.6" style="fill:#A4C2F7;" width="85.333" height="51.2"/>
			<circle style="fill:#A4C2F7;" cx="468.333" cy="50.2" r="34.133"/>
			<rect x="50.2" y="24.6" style="fill:#A4C2F7;" width="85.333" height="51.2"/>
		</g>
		<path style="fill:#7FABFA;" d="M442.733,468.333c0.453,10.174-1.476,20.313-5.632,29.611c-1.438,2.814-4.35,4.567-7.509,4.523
			H80.408c-3.16,0.044-6.071-1.709-7.509-4.523c-4.156-9.297-6.085-19.437-5.632-29.611c-0.453-10.174,1.476-20.313,5.632-29.611
			c1.438-2.814,4.35-4.567,7.509-4.523h349.184c3.16-0.044,6.071,1.709,7.509,4.523C441.257,448.02,443.186,458.159,442.733,468.333
			z"/>
		<path style="fill:#E3E7F2;" d="M417.133,468.333c0.453,10.174-1.476,20.313-5.632,29.611c-1.438,2.814-4.349,4.567-7.509,4.523
			H80.408c-3.16,0.044-6.071-1.709-7.509-4.523c-4.156-9.297-6.085-19.437-5.632-29.611c-0.453-10.174,1.476-20.313,5.632-29.611
			c1.438-2.814,4.35-4.567,7.509-4.523h323.584c3.16-0.044,6.071,1.709,7.509,4.523C415.657,448.02,417.586,458.159,417.133,468.333
			z"/>
		<path style="fill:#A4C2F7;" d="M383,132.291v28.843c0,4.713,3.82,8.533,8.533,8.533s8.533,3.821,8.533,8.533v148.48
			c0.03,3.088-1.643,5.941-4.352,7.424c-6.935,3.782-13.607,8.03-19.968,12.715c-2.894,2.165-4.11,5.917-3.037,9.368
			c1.074,3.451,4.204,5.851,7.815,5.992c4.317,0.213,8.604,0.842,12.8,1.877c3.94,0.846,6.751,4.333,6.741,8.363l0,61.781H109.933
			l0-85.333c-0.014-2.253,0.869-4.418,2.454-6.019c1.585-1.601,3.741-2.505,5.994-2.515c2.278,0.023,4.47-0.866,6.089-2.469
			c1.619-1.603,2.53-3.786,2.529-6.064v-22.101c-0.018-2.237-0.905-4.379-2.475-5.973l-12.117-12.117
			c-1.57-1.594-2.457-3.736-2.475-5.973V133.485c-0.009-4.03,2.802-7.516,6.741-8.363c4.196-1.036,8.483-1.664,12.8-1.877
			c3.611-0.141,6.742-2.541,7.815-5.992c1.074-3.451-0.143-7.203-3.037-9.368c-6.361-4.684-13.033-8.932-19.968-12.715
			c-2.709-1.483-4.382-4.336-4.352-7.424V24.6c0.028-9.414,7.653-17.039,17.067-17.067h256c9.414,0.028,17.039,7.653,17.067,17.067
			v88.576c0.023,3.244-1.796,6.22-4.693,7.68l-7.68,3.755C384.796,126.07,382.977,129.047,383,132.291z"/>
		<path style="fill:#E3E7F2;" d="M348.867,132.291v28.843c0,4.713,3.82,8.533,8.533,8.533s8.533,3.821,8.533,8.533v148.48
			c0.03,3.088-1.643,5.941-4.352,7.424c-6.935,3.782-13.607,8.03-19.968,12.715c-2.894,2.165-4.11,5.917-3.037,9.368
			c1.074,3.451,4.204,5.851,7.815,5.992c4.317,0.213,8.604,0.842,12.8,1.877c3.94,0.846,6.751,4.333,6.741,8.363l0,61.781H109.933
			l0-85.333c-0.014-2.253,0.869-4.418,2.454-6.019c1.585-1.601,3.741-2.505,5.994-2.515c2.278,0.023,4.47-0.866,6.089-2.469
			c1.619-1.603,2.53-3.786,2.529-6.064v-22.101c-0.018-2.237-0.905-4.379-2.475-5.973l-12.117-12.117
			c-1.57-1.594-2.457-3.736-2.475-5.973V133.485c-0.009-4.03,2.802-7.516,6.741-8.363c4.196-1.036,8.483-1.664,12.8-1.877
			c3.611-0.141,6.742-2.541,7.815-5.992c1.074-3.451-0.143-7.203-3.037-9.368c-6.361-4.684-13.033-8.932-19.968-12.715
			c-2.709-1.483-4.382-4.336-4.352-7.424V24.6c0.028-9.414,7.653-17.039,17.067-17.067h221.867
			c9.414,0.028,17.039,7.653,17.067,17.067v88.576c0.023,3.244-1.796,6.22-4.693,7.68l-7.68,3.755
			C350.663,126.07,348.844,129.047,348.867,132.291z"/>
		<circle style="fill:#A4C2F7;" cx="41.667" cy="50.2" r="34.133"/>
		<g>
			<circle style="fill:#E3E7F2;" cx="37.4" cy="45.933" r="21.333"/>
			<circle style="fill:#E3E7F2;" cx="464.067" cy="45.933" r="21.333"/>
		</g>
	</g>
	<g transform="translate(7 1)">
		<path style="fill:#FFFFFF;" d="M475.244,18.627c-11.927-4.949-25.636-2.627-35.268,5.973h25.6
			C468.449,22.092,471.716,20.074,475.244,18.627z"/>
		<path style="fill:#FFFFFF;" d="M92.499,497.944c-4.156-9.297-6.085-19.437-5.632-29.611c-0.453-10.174,1.476-20.313,5.632-29.611
			c1.438-2.814,4.35-4.567,7.509-4.523h-25.6c-3.16-0.044-6.071,1.709-7.509,4.523c-4.156,9.297-6.085,19.437-5.632,29.611
			c-0.453,10.174,1.476,20.313,5.632,29.611c1.438,2.814,4.35,4.567,7.509,4.523h25.6C96.848,502.511,93.937,500.758,92.499,497.944
			z"/>
		<path style="fill:#FFFFFF;" d="M465.576,75.8h-25.6c9.633,8.601,23.341,10.922,35.268,5.973
			C471.716,80.326,468.449,78.308,465.576,75.8z"/>
		<path style="fill:#FFFFFF;" d="M153.853,107.885c-6.361-4.684-13.033-8.932-19.968-12.715c-2.709-1.483-4.382-4.336-4.352-7.424
			V24.6c0.028-9.414,7.653-17.039,17.067-17.067H121c-9.414,0.028-17.039,7.653-17.067,17.067v63.147
			c-0.03,3.088,1.643,5.941,4.352,7.424c6.935,3.782,13.607,8.03,19.968,12.715c2.894,2.165,4.11,5.917,3.037,9.368
			c-1.074,3.451-4.204,5.851-7.815,5.992c-4.317,0.213-8.604,0.842-12.8,1.877c-3.94,0.846-6.751,4.333-6.741,8.363v152.149
			c0.018,2.237,0.905,4.379,2.475,5.973l12.117,12.117c1.57,1.594,2.457,3.736,2.475,5.973V331.8c0,2.278-0.911,4.462-2.529,6.064
			c-1.619,1.603-3.811,2.492-6.089,2.469c-2.253,0.009-4.409,0.914-5.994,2.515s-2.468,3.766-2.454,6.019l0,85.333h25.6v-85.333
			c-0.014-2.253,0.869-4.418,2.454-6.019c1.585-1.601,3.741-2.505,5.994-2.515c2.278,0.023,4.47-0.866,6.089-2.469
			c1.619-1.603,2.53-3.786,2.529-6.064v-22.101c-0.018-2.237-0.905-4.379-2.475-5.973l-12.117-12.117
			c-1.57-1.594-2.457-3.736-2.475-5.973V133.485c-0.009-4.03,2.802-7.516,6.741-8.363c4.196-1.036,8.483-1.664,12.8-1.877
			c3.611-0.141,6.742-2.541,7.815-5.992C157.964,113.803,156.747,110.05,153.853,107.885z"/>
	</g>
	<g>
		<polygon style="fill:#FFFFFF;" points="119.467,128 119.467,238.933 119.467,290.133 102.4,290.133 102.4,238.933 102.4,128 		"/>
		<g>
			<path style="fill:#428DFF;" d="M469.333,8.533c-9.146,0.029-18.036,3.023-25.335,8.533H408.03C404.427,6.875,394.81,0.045,384,0
				H128c-10.81,0.045-20.427,6.875-24.03,17.067H68.002c-7.3-5.51-16.19-8.504-25.335-8.533C19.103,8.533,0,27.636,0,51.2
				s19.103,42.667,42.667,42.667c9.146-0.029,18.036-3.023,25.335-8.533H102.4v8.533c0,3.236,1.831,6.194,4.727,7.637
				c8.059,4.099,15.765,8.857,23.04,14.225c-7.462,0.371-14.837,1.775-21.914,4.173c-3.459,1.177-5.769,4.445-5.726,8.098H102.4
				v34.133c0,4.713,3.821,8.533,8.533,8.533c4.713,0,8.533-3.821,8.533-8.533v-27.639c10.074-2.806,20.775-2.376,30.592,1.229
				c0.472,0.169,0.957,0.297,1.451,0.384c0.455,0.131,0.92,0.226,1.391,0.282c0.231,0.061,0.464,0.109,0.7,0.145
				c0.383-0.051,0.762-0.128,1.135-0.23c0.302-0.043,0.601-0.103,0.896-0.179c0.684-0.158,1.346-0.399,1.971-0.717
				c2.135-1.188,3.646-3.247,4.139-5.641c0.06-0.29,0.137-0.563,0.171-0.853c0.094-0.299,0.168-0.604,0.222-0.913
				c-0.044-0.288-0.104-0.572-0.179-0.853c-0.059-0.474-0.156-0.942-0.29-1.399c-0.107-0.473-0.255-0.936-0.444-1.382
				c0-0.077,0-0.154-0.068-0.23c-7.774-15.59-31.266-29.73-41.685-35.388V25.6c0-4.713,3.821-8.533,8.533-8.533h256
				c4.713,0,8.533,3.821,8.533,8.533v88.593l-12.348,6.17c-2.893,1.446-4.72,4.403-4.719,7.637v34.133
				c0,9.426,7.641,17.067,17.067,17.067v148.48c-10.411,5.692-33.903,19.823-41.685,35.379c0,0.077,0,0.162-0.077,0.239
				c-0.18,0.449-0.325,0.911-0.435,1.382c-0.131,0.449-0.226,0.909-0.282,1.374c-0.079,0.289-0.141,0.583-0.188,0.879
				c0.045,0.316,0.108,0.629,0.188,0.939c0,0.213,0.085,0.427,0.128,0.64c0.613,3.273,3.123,5.863,6.374,6.579
				c0.196,0.051,0.384,0.085,0.58,0.119c0.413,0.12,0.836,0.205,1.263,0.256c0.264-0.041,0.526-0.095,0.785-0.162
				c0.387-0.047,0.769-0.124,1.143-0.23c0.562-0.093,1.114-0.242,1.647-0.444c9.813-3.569,20.495-3.989,30.558-1.203v53.239H119.467
				l-0.094-76.8h0.094c9.426,0,17.067-7.641,17.067-17.067v-25.6c0-2.263-0.9-4.433-2.5-6.033l-14.566-14.566V230.4
				c0-4.713-3.821-8.533-8.533-8.533c-4.713,0-8.533,3.82-8.533,8.533v59.733c0,2.263,0.9,4.433,2.5,6.033l14.566,14.566V332.8
				h-0.111c-4.465-0.005-8.748,1.766-11.904,4.924c-3.247,3.204-5.068,7.581-5.052,12.143v76.8H76.8c-2.263,0-4.433,0.9-6.033,2.5
				c-1.843,1.843-11.034,12.433-11.034,40.166c0,27.733,9.19,38.323,11.034,40.166c1.6,1.6,3.77,2.5,6.033,2.5h358.4
				c2.263,0,4.433-0.9,6.033-2.5c1.843-1.843,11.034-12.433,11.034-40.166c0-27.733-9.19-38.323-11.034-40.166
				c-1.6-1.6-3.77-2.5-6.033-2.5h-25.6v-59.733c0-0.119-0.06-0.213-0.068-0.333c-0.178-1.095-0.434-2.176-0.768-3.234
				c-0.245-0.457-0.53-0.891-0.853-1.297c-0.501-0.94-1.291-1.694-2.253-2.15c-0.492-0.365-1.025-0.671-1.587-0.913
				c-0.102,0-0.179-0.128-0.29-0.171c-7.079-2.398-14.457-3.802-21.922-4.173c7.276-5.367,14.982-10.125,23.04-14.225
				c0.809-0.63,1.617-1.261,2.423-1.894c0.324-0.399,0.609-0.828,0.853-1.28c0.721-0.912,1.134-2.03,1.178-3.191
				c0.117-0.416,0.2-0.842,0.247-1.271V179.2c0-9.426-7.641-17.067-17.067-17.067v-28.86l12.348-6.17
				c0.342-0.232,0.668-0.489,0.973-0.768c0.517-0.319,0.998-0.694,1.434-1.118c0.35-0.417,0.656-0.869,0.913-1.348
				c0.716-0.924,1.122-2.049,1.161-3.217c0.11-0.389,0.19-0.785,0.239-1.186V85.333h34.398c7.3,5.51,16.19,8.504,25.335,8.533
				C492.898,93.867,512,74.764,512,51.2S492.898,8.533,469.333,8.533z M17.067,51.2c0-14.138,11.462-25.6,25.6-25.6
				s25.6,11.462,25.6,25.6s-11.462,25.6-25.6,25.6S17.067,65.338,17.067,51.2z M81.715,68.267c4.824-10.866,4.824-23.267,0-34.133
				H102.4v34.133H81.715z M435.2,469.333c0.411,8.768-1.152,17.517-4.574,25.6H81.408c-3.451-8.075-5.026-16.828-4.608-25.6
				c-0.411-8.768,1.152-17.517,4.574-25.6h349.218C434.043,451.809,435.618,460.561,435.2,469.333z M409.6,34.133h20.685
				c-4.824,10.866-4.824,23.267,0,34.133H409.6V34.133z M469.333,76.8c-14.138,0-25.6-11.462-25.6-25.6s11.462-25.6,25.6-25.6
				c14.138,0,25.6,11.462,25.6,25.6c0,6.79-2.697,13.301-7.498,18.102C482.634,74.103,476.123,76.8,469.333,76.8z"/>
			<path style="fill:#428DFF;" d="M110.933,204.8c3.467,0.02,6.601-2.059,7.931-5.261c1.329-3.202,0.59-6.89-1.872-9.331
				l-1.28-1.024c-0.476-0.323-0.992-0.581-1.536-0.768c-0.484-0.247-1.001-0.419-1.536-0.512c-0.564-0.095-1.135-0.152-1.707-0.171
				c-2.259,0.033-4.422,0.917-6.059,2.475c-0.771,0.816-1.38,1.772-1.792,2.816c-1.287,3.183-0.586,6.825,1.792,9.301
				c0.816,0.771,1.772,1.38,2.816,1.792C108.717,204.555,109.818,204.787,110.933,204.8z"/>
			<path style="fill:#428DFF;" d="M190.711,110.396l19.209-7.142l11.81,6.605c2.361,1.326,5.211,1.452,7.68,0.341l29.286-13.099
				l4.864,16.282c0.821,2.751,2.971,4.906,5.72,5.732c2.75,0.827,5.731,0.215,7.933-1.628l24.209-20.301l9.771,10.914
				c1.619,1.808,3.931,2.841,6.357,2.842H332.8c4.713,0,8.533-3.821,8.533-8.533s-3.82-8.533-8.533-8.533h-11.452l-12.732-14.234
				c-3.07-3.435-8.313-3.813-11.844-0.853l-20.591,17.263l-3.925-13.158c-0.703-2.353-2.385-4.29-4.617-5.314
				c-2.232-1.024-4.797-1.038-7.04-0.036l-34.27,15.36l-11.52-6.443c-2.185-1.221-4.797-1.421-7.142-0.546l-22.912,8.533
				c-2.857,1.067-4.927,3.577-5.431,6.584c-0.504,3.007,0.634,6.055,2.987,7.996c2.352,1.94,5.561,2.478,8.418,1.411
				L190.711,110.396z"/>
			<path style="fill:#428DFF;" d="M179.738,190.711c1.645,4.416,6.558,6.662,10.974,5.018l19.209-7.142l11.81,6.605
				c2.364,1.315,5.209,1.441,7.68,0.341l29.286-13.099l4.864,16.282c0.821,2.751,2.971,4.906,5.72,5.732
				c2.75,0.827,5.731,0.215,7.933-1.628l24.209-20.301l9.771,10.914c1.619,1.808,3.931,2.841,6.357,2.842H332.8
				c4.713,0,8.533-3.82,8.533-8.533c0-4.713-3.82-8.533-8.533-8.533h-11.452l-12.732-14.225c-3.07-3.435-8.313-3.813-11.844-0.853
				l-20.591,17.263l-3.925-13.158c-0.703-2.353-2.385-4.29-4.617-5.314c-2.232-1.025-4.797-1.038-7.04-0.036l-34.27,15.36
				l-11.52-6.443c-2.188-1.213-4.796-1.412-7.142-0.546l-22.912,8.533C180.367,181.434,178.127,186.31,179.738,190.711z"/>
			<path style="fill:#428DFF;" d="M179.738,276.045c1.645,4.416,6.558,6.662,10.974,5.018l19.209-7.142l11.81,6.605
				c2.361,1.326,5.211,1.452,7.68,0.341l29.286-13.099l4.864,16.282c0.821,2.751,2.971,4.906,5.72,5.732
				c2.75,0.827,5.731,0.215,7.933-1.628l24.209-20.301l9.771,10.914c1.619,1.808,3.931,2.841,6.357,2.842H332.8
				c4.713,0,8.533-3.821,8.533-8.533c0-4.713-3.82-8.533-8.533-8.533h-11.452l-12.732-14.225c-3.07-3.435-8.313-3.813-11.844-0.853
				l-20.591,17.263l-3.925-13.158c-0.703-2.353-2.385-4.29-4.617-5.314c-2.232-1.024-4.797-1.038-7.04-0.036l-34.27,15.36
				l-11.52-6.443c-2.185-1.221-4.797-1.421-7.142-0.546l-22.912,8.533C180.367,266.768,178.127,271.644,179.738,276.045z"/>
			<path style="fill:#428DFF;" d="M179.738,361.378c1.645,4.416,6.558,6.662,10.974,5.018l19.209-7.142l11.81,6.605
				c2.361,1.326,5.211,1.452,7.68,0.341l29.286-13.099l4.864,16.282c0.821,2.751,2.971,4.906,5.72,5.732
				c2.75,0.827,5.731,0.215,7.933-1.628l24.209-20.301l9.771,10.914c2.025,2.304,5.131,3.344,8.135,2.724
				c3.004-0.62,5.444-2.805,6.392-5.722s0.255-6.119-1.812-8.385l-15.275-17.067c-3.07-3.435-8.313-3.813-11.844-0.853
				l-20.591,17.263l-3.925-13.158c-0.703-2.353-2.385-4.29-4.617-5.314c-2.232-1.024-4.797-1.038-7.04-0.036l-34.27,15.317
				l-11.52-6.443c-2.185-1.221-4.797-1.421-7.142-0.546l-22.912,8.533C180.355,352.051,178.101,356.96,179.738,361.378z"/>
		</g>
	</g>
</g>
<g>
</g>
<g>
</g>
<g>
</g>
<g>
</g>
<g>
</g>
<g>
</g>
<g>
</g>
<g>
</g>
<g>
</g>
<g>
</g>
<g>
</g>
<g>
</g>
<g>
</g>
<g>
</g>
<g>
</g>
</svg>
