<svg height="511pt" viewBox="0 0 511.99969 511" width="511pt" xmlns="http://www.w3.org/2000/svg"><path d="m512 303.046875c0 89.054687-94.996094 177.316406-242.257812 202.890625-147.261719 25.578125-248.4375-27.617188-266.640626-114.941406-24.238281-116.292969 96.261719-227.585938 266.640626-227.585938 145.4375 0 242.257812 50.578125 242.257812 139.636719zm0 0" fill="#f4ac03"/><path d="m324.800781 163.410156h-.417969c-.046874 0-.078124 0-.128906 0h-.402344l-.046874.003906c-.046876 0-.082032 0-.132813 0h-.054687c-.046876 0-.085938 0-.132813 0h-.242187c-.050782 0-.109376.003907-.160157.003907h-.046875c-.046875 0-.082031 0-.128906 0h-.234375l-.179687.003906h-.179688l-.046875.003906c-.050781 0-.078125 0-.125 0h-.0625l-.128906.003907h-.222657l-.039062.003906h-.195312c-.03125 0-.085938.003906-.117188.003906h-.066406c-.046875 0-.082032 0-.128906.003906h-.042969l-.171875.003906h-.179688l-.0625.003907c-.03125 0-.085937 0-.117187 0h-.058594c-.046875.003906-.085937.003906-.136719.003906h-.039062c-.0625 0-.109375.003906-.175782.003906h-.042968l-.132813.003907h-.054687l-.128906.003906h-.054688l-.136719.003906h-.039062c-.054688 0-.117188.003906-.171875.003906h-.050782l-.128906.003906-.058594.003907h-.117187l-.0625.003906-.132813.003906h-.042968l-.167969.003907h-.058594l-.117187.003906-.066406.003906h-.113282l-.0625.003906-.144531.003906h-.027344c-.058593 0-.117187.003907-.171875.003907l-.0625.003906c-.039062 0-.078125 0-.117187.003906h-.058594c-.050781.003907-.078125.003907-.125.003907l-.050781.003906-.167969.003906h-.007813l-.175781.007812h-.054687l-.121094.003907-.058594.003906-.121094.003906h-.058593c-.109375.003907-.234375.007813-.34375.011719l-.054688.003906-.125.003906-.058593.003907-.121094.003906h-.054688c-.054687.003906-.117187.003906-.171875.007813h-.011719c-.054687.003906-.109374.003906-.164062.007812h-.054688l-.121093.007812h-.058594l-.128906.007813h-.046875c-.109375.003906-.238282.011719-.351563.015625l-.050781.003906-.125.003906-.054688.003907c-.046874 0-.085937.003906-.132812.003906l-.042969.003906-.175781.007813h-.023438l-.148437.007812h-.058594l-.121093.007813-.054688.003906c-.046875 0-.082031.003906-.128906.003906l-.050782.003907-.171874.007812h-.027344c-.046875.003906-.09375.003906-.144532.007812l-.058593.003907-.117188.003906-.0625.003906c-.039062.003907-.085937.003907-.125.007813h-.046875l-.175781.011718h-.027344c-.046875.003907-.09375.003907-.140625.007813l-.0625.003906-.117187.003907-.058594.003906c-.046875.003906-.085937.003906-.132813.007812l-.039062.003906c-.0625 0-.113281.003907-.175781.007813h-.035157l-.136718.007813-.058594.003906-.121094.007812-.050781.003906c-.046875 0-.101563.003907-.148437.007813h-.027344c-.0625.003906-.113282.007813-.175782.011719l-.039062.003906c-.046875 0-.085938.003906-.132812.007812h-.058594l-.121094.007813-.054688.003906-.144531.007813-.027343.003906-.175782.011719h-.035156l-.140625.007812-.050781.003907-.128906.011718h-.046876l-.152343.011719h-.023438c-.0625.003906-.113281.007813-.175781.011719l-.039062.003906-.132813.007812-.058594.003907c-.046875.003906-.074219.003906-.121093.007812l-.050782.003907c-.046875.003906-.105468.007812-.152344.011718h-.019531c-.0625.003906-.113281.007813-.175781.011719l-.042969.003906-.128906.007813-.058594.003906-.121093.007812-.050782.003907-.347656.027343h-.046875l-.125.011719-.058594.003907-.125.007812-.046875.003906-.347656.027344-.046875.003906-.128906.007813-.050781.003906c-.046876.003906-.089844.007813-.136719.011719h-.039063l-.347656.027344-.046875.003906-.125.011718-.058594.003907-.125.011719-.046875.003906c-.0625.003906-.109375.007812-.171875.011718h-.007812c-.054688.003907-.113281.011719-.167969.015626l-.171875.015624-.050781.003907-.140625.011719h-.03125c-.117188.011718-.234375.019531-.351563.03125l-.046875.003906-.125.011718-.054687.003907-.136719.011719-.03125.003906c-.0625.003906-.113281.007812-.175781.015625h-.027344c-.046875.003906-.101562.007812-.148438.011719l-.046874.003906c-.046876.007812-.082032.007812-.128907.011718l-.046875.007813c-.046875.003906-.101562.007813-.148437.011719h-.023438l-.175781.019531h-.03125l-.140625.015625-.050781.003906c-.046875.003906-.078125.007813-.125.011719l-.054688.003906c-.046875.003907-.089844.007813-.136718.011719l-.035157.003906c-.058593.007813-.109375.011719-.171875.015625l-.027344.003907-.144531.011718-.050781.007813-.125.011719-.050781.003906-.144531.015625h-.027344l-.171875.019531-.039063.003906-.128906.011719-.058594.003906c-.039062.003907-.078125.007813-.117187.011719l-.058594.007812c-.050781.003907-.109375.011719-.164063.015626-.0625.007812-.113281.011718-.175781.019531l-.039062.003906c-.046875.003906-.089844.007813-.132813.011719l-.050781.007812c-.046875.003906-.082031.007813-.128906.011719l-.046875.003906-.167969.019531c-.003906 0 .003906 0 0 0l-.175781.015626-.039063.007812c-.046875.003906-.085937.007812-.132812.011719l-.050781.003906-.125.015625-.050782.003906c-.109375.011719-.230468.027344-.339844.039063l-.046874.003906-.125.015625-.054688.003906-.125.015625-.046875.003907c-.105469.011718-.234375.027343-.34375.039062l-.042969.003906-.128906.015625-.050781.003907c-.046875.007812-.078125.007812-.125.015624l-.050781.003907-.339844.039062-.042969.003907-.132813.015624-.042968.003907-.136719.015625-.035156.003906-.347657.039062-.042968.007813c-.046875.003906-.082032.007813-.128906.015625l-.046876.003906c-.046874.007813-.085937.011719-.132812.015625l-.039062.003907-.171876.023437h-.011718c-.054688.007813-.105469.011719-.15625.019531l-.050782.003906c-.046874.007813-.082031.011719-.128906.015626l-.046875.007812c-.042969.003906-.085937.011719-.132812.015625l-.039063.003906c-.058594.007813-.109375.015625-.171875.023438h-.019531l-.148438.019531-.046874.007812-.128907.015626-.042969.003906c-.046874.007812-.097656.011718-.144531.019531l-.027343.003906-.179688.023438-.167969.019531-.039062.007812-.136719.015626-.039062.003906-.148438.019531-.023438.003906-.171874.023438-.027344.003906-.144532.019531-.046874.003906-.128907.019532-.042969.003906-.144531.019531-.027343.003907-.171876.023437-.035156.003906-.132812.019531-.050782.003907-.125.019531-.046874.007812c-.046876.003907-.109376.011719-.152344.019532h-.015625l-.175781.023437-.023438.003907-.144531.019531-.046875.007812-.125.019531-.046875.003907-.152344.023437h-.019531c-.058594.011719-.109375.015625-.167969.023438l-.035156.007812-.136719.015625-.046875.007813-.128906.019531-.042969.007813c-.113281.015624-.226562.03125-.339844.046874l-.039062.007813-.132813.015625-.046875.007812-.128906.019532-.039062.003906c-.117188.019531-.230469.035156-.34375.050781l-.027344.007813c-.046875.003906-.101563.011718-.148438.019531l-.035156.003906-.144531.023438-.027344.003906c-.121094.019531-.222656.035156-.347656.050781l-.03125.007813-.136719.019531-.042969.007812c-.046875.007813-.089843.011719-.136719.019532l-.035156.003906-.339844.054688-.035156.003906-.136718.023437-.042969.003907c-.042969.007812-.09375.015624-.140625.023437l-.027344.003906c-.113281.019531-.230469.035157-.34375.054688l-.035156.003906c-.046875.007813-.089844.015625-.132813.023437l-.046875.007813c-.042968.007813-.097656.015625-.144531.023437h-.019531c-.0625.011719-.113282.019532-.175782.03125h-.011718c-.054688.007813-.105469.015626-.15625.027344l-.042969.003906c-.042969.007813-.085937.015626-.128906.023438l-.042969.003906-.152344.027344h-.015625l-.175781.03125h-.003906l-.167969.027344-.027344.003906-.144531.023438-.03125.007812c-.054688.007812-.113281.015625-.164062.027344h-.003907c-.0625.007812-.121093.019531-.179687.03125h-.011719l-.160156.027344-.027344.003906c-.046875.007812-.101563.019531-.148437.027344l-.027344.003906c-.179688.03125-.339844.058594-.519532.089844h-.023437l-.152344.027343-.027343.003907c-.117188.023437-.226563.039062-.34375.0625h-.019532l-.15625.027343-.023437.007813c-.046875.007812-.109375.015625-.152344.023437l-.023437.003907-.347657.0625-.019531.003906c-.046875.007812-.105469.019531-.148438.027344l-.035156.007812-.140625.023438-.03125.007812-.34375.058594-.019531.003906-.152344.03125-.027344.003906-.144531.027344-.027343.003906c-.121094.023438-.222657.039063-.34375.0625l-.03125.007813-.136719.023437-.039063.007813c-.042968.007812-.09375.019531-.136718.027343l-.03125.003907c-.113282.019531-.226563.042969-.339844.0625l-.035156.007812c-.046876.007813-.089844.019531-.132813.027344l-.039063.007813-.144531.023437-.023437.007813c-.121094.019531-.222656.039062-.339844.0625l-.035156.007812-.140625.027344-.027344.003906c-.050781.011719-.105469.019531-.15625.03125h-.015625c-.109375.023438-.230469.046875-.339844.070312l-.035156.003907c-.046875.011719-.09375.019531-.136719.027343l-.035156.007813-.152344.03125h-.011719c-.121093.023437-.226562.046875-.34375.070313l-.03125.003906-.140624.03125-.03125.003906-.148438.03125-.023438.003906c-.109374.023438-.222656.042969-.332031.066406l-.042969.007813c-.042968.011719-.085937.019531-.132812.027344l-.035156.007812-.15625.03125-.007813.003907-.175781.035156h-.007812l-.195313.039062-.132813.027344-.035156.007812-.15625.035157h-.007812c-.0625.011719-.117188.023437-.175782.035156l-.011718.003906c-.050782.011719-.101563.019531-.152344.03125l-.035156.007813c-.046875.007812-.09375.019531-.136719.03125l-.035156.003906-.335938.074219-.015625.003906-.152344.03125-.035156.007813c-.046875.007812-.09375.019531-.136718.027343l-.03125.007813c-.113282.023437-.230469.046875-.339844.074218h-.015625l-.144531.03125-.046876.011719-.125.027344-.039062.007813-.332031.074218-.027344.003906c-.046875.011719-.09375.023438-.140625.03125l-.039062.007813-.136719.03125-.027344.007813c-.117187.023437-.21875.046874-.335937.074218l-.027344.003906-.136719.03125-.042969.007813c-.042968.011719-.09375.023437-.136718.03125l-.027344.007813c-.117188.023437-.222656.046874-.339844.074218l-.011719.003906c-.046875.011719-.105469.023438-.148437.035157l-.035156.007812-.144532.03125-.019531.003907c-.117187.027343-.222656.050781-.339844.078124l-.023437.007813c-.042969.007813-.09375.019531-.136719.03125l-.042969.007813-.140625.035156-.019531.003906c-.117188.027344-.21875.050781-.335938.078125l-.03125.003906-.132812.035157-.039062.007812-.148438.035156-.015625.003906c-.117187.027344-.222656.050782-.339844.078126l-.019531.003906c-.042969.011718-.105469.027344-.148438.035156l-.023437.007812c-.054687.011719-.113281.027344-.164063.039063-.117187.027344-.226562.054687-.34375.082031l-.019531.003906c-.046875.011719-.101562.023438-.144531.035157l-.035156.007812c-.050782.011719-.105469.027344-.160156.039063l-.339844.082031-.023438.007813c-.042968.007812-.097656.023437-.140625.03125l-.035156.007812c-.050781.015625-.109375.027344-.160156.042969l-.339844.082031-.023437.003906-.144532.039063-.023437.003906c-.175781.046875-.335938.085937-.507813.128906l-.019531.003907-.152344.039062-.019531.003906c-.171875.042969-.335938.085938-.507812.128906l-.011719.003907c-.058594.011719-.101563.023437-.160157.039062l-.011718.003907c-.117188.03125-.226563.058593-.34375.085937v.003906l-.167969.039063-.015625.007812-.15625.039063-.011719.003906c-.175781.042969-.339843.085937-.511719.132813h-.007812c-.058594.015624-.109375.03125-.167969.042968l-.007812.003906c-.113281.03125-.222657.058594-.339844.089844l-.011719.003906-.15625.039063-.019531.007813c-.054687.011718-.097656.023437-.15625.039062l-.007813.003906c-.117187.03125-.226562.058594-.339843.089844l-.011719.003906-.15625.039063-.019531.007812-.15625.042969h-.007813c-.113281.03125-.226562.0625-.339844.09375h-.011718l-.15625.042969-.019532.007812c-.050781.011719-.101562.027344-.148437.039063l-.019531.003906c-.113282.03125-.21875.0625-.335938.09375l-.011718.003906-.15625.042969-.015626.003906c-.171874.046875-.332031.09375-.503906.140625l-.015625.003906-.152343.042969-.015626.003907c-.175781.046874-.335937.09375-.507812.140624l-.007812.003907c-.058594.015625-.109376.03125-.164063.046875h-.003906c-.171875.050781-.335938.097656-.507813.144531l-.011718.003906-.160157.046875h-.007812l-.507813.148438h-.011718c-.054688.019531-.101563.03125-.15625.046875l-.011719.003906c-.171875.050781-.332031.097656-.503907.148437l-.011718.003907-.164063.046875c-.171875.050781-.339843.097656-.507812.152344h-.007813c-.230468.066406-.449218.132812-.675781.203124h-.007813c-.226562.070313-.445312.132813-.671874.203126l-.011719.003906c-.226563.070312-.445313.136718-.671875.203125l-.003906.003906c-.226563.070313-.445313.136719-.671876.207031l-.007812.003906-.503906.15625c-.003906.003907.003906 0-.003906 0l-.160157.050782-.011719.003906c-.222656.070312-.441406.140625-.667968.214844-.003906 0 0-.003906-.003906 0-.167969.054687-.335938.105468-.503907.160156-.058593.019531-.105469.035156-.160156.050781l-.015625.007813c-.167969.050781-.328125.105468-.496094.160156h-.007812l-.15625.050781-.011719.007813c-.167969.054687-.328125.105468-.496094.160156l-.007812.003906-.160157.050782-.007812.003906c-.167969.054687-.328125.105468-.492188.164062l-.015624.003906-.148438.050782-.019531.003906c-.167969.054688-.324219.109375-.492188.164062l-.011719.003907c-.054687.019531-.097656.035156-.15625.054687h-.007812c-.167969.058594-.324219.109375-.492188.167969l-.015624.003906-.15625.054688h-.003907c-.164062.058593-.328125.113281-.496093.171875l-.007813.003906c-.167969.054688-.328125.113281-.496094.167969-.054687.019531-.109375.039062-.164062.058593h-.003907c-.222656.078126-.441406.15625-.664062.234376-.445312.15625-.886719.3125-1.328125.46875-.167969.0625-.328125.121093-.496094.179687l-.003906.003906-.160156.058594h-.003907c-.164062.058594-.328124.117187-.496093.179687-.21875.082032-.4375.160157-.65625.242188h-.003907c-.222656.082031-.4375.160156-.65625.242188l-.003906.003906c-.21875.082031-.433594.160156-.652344.242187l-.007812.003907c-.21875.082031-.429688.164062-.648438.246093-.007812 0 0 0-.007812 0-.21875.085938-.425781.164063-.644531.25l-.011719.003907c-.21875.082031-.425781.164062-.644531.246093l-.007813.003907c-.21875.085937-.421875.167968-.640625.25l-.015625.007812c-.21875.085938-.425781.164062-.640625.253906h-.003906c-.21875.085938-.433594.171875-.648437.257813-.003907 0 .003906 0-.003907 0-.433593.171875-.855469.34375-1.289062.519531l-.007813.003906c-.433594.175782-.859375.351563-1.289062.527344v.003906c-.164063.066406-.320313.132813-.480469.199219h-.003906c-.054688.023437-.101563.042969-.15625.066406h-.003907c-.160156.070313-.316406.132813-.476562.203125l-.011719.003906c-.050781.019532-.09375.039063-.148437.0625l-.007813.003907c-.160156.066406-.316406.132812-.476562.203125h-.003907c-.214843.089844-.421874.179687-.632812.269531l-.007812.003906-.15625.066407h-.003907c-.15625.070312-.316406.140624-.476562.207031-.214844.09375-.421875.183593-.636719.277343l-.003906.003907c-1.007813.441406-2.007813.886719-3.007813 1.34375l-.003906.003906c-.210937.09375-.417969.1875-.625.285156l-.003906.003907c-.210938.09375-.417969.191406-.628907.289062-.003906 0 .003907-.003906 0 0-.210937.097656-.417968.195312-.625.292969h-.003906c-.210937.097656-.414062.195312-.621094.292969l-.007812.003906c-5.734375 2.710937-11.300781 5.65625-16.695312 8.839844-4.609376 2.71875-9.085938 5.59375-13.429688 8.632812-.878906.613281-1.75 1.234375-2.617188 1.859375-.683593.492187-1.363281.992187-2.039062 1.492187l-.003906.003907-.128906.09375-.007813.003906c-.136719.101563-.265625.199219-.402344.300781l-.003906.003906c-.179687.132813-.351563.265626-.53125.398438l-.007813.007812c-.179687.132813-.351562.265626-.53125.398438l-.003906.003906c-.179687.136719-.355468.269532-.53125.402344l-.007812.003906c-.355469.273438-.707032.542969-1.0625.816406l-.003906.003907c-.175782.136719-.347657.269531-.527344.40625l-.003906.007812c-.179688.136719-.34375.265625-.523438.40625l-.011719.007813c-.175781.140625-.34375.269531-.519531.410156l-.003906.003906c-.175782.136719-.351563.273438-.527344.414063-.65625.523437-1.308594 1.046875-1.960938 1.574219l-.003906.003906c-.042968.035156-.082031.066406-.125.101562l-.003906.003906c-.300781.246094-.601562.492188-.902344.742188l-.003906.003906c-.042969.035156-.082031.0625-.125.101563l-.007812.003906c-.300782.25-.597657.496094-.894532.746094l-.003906.003906c-.171875.144531-.339844.285156-.511719.429687-.300781.25-.597656.503907-.894531.757813h-.003906l-.125.105469v.003906c-.171875.144531-.335938.285156-.507813.429688l-.003906.003906c-.125.109375-.25.214844-.375.324218l-.003906.003907-.125.105469v.003906c-.128907.109375-.25.214844-.378907.324218l-.003906.003907-.121094.109375h-.003906c-.460937.402344-.921875.804687-1.378906 1.210937h-.003906c-.164063.148438-.328125.292969-.496094.441407l-.003906.007812c-.167969.148438-.324219.289062-.492188.4375l-.007812.007812c-.167969.148438-.324219.289063-.488282.441407l-.007812.003906c-.125.113281-.242188.222656-.367188.332031v.003906c-.042968.035157-.074218.066407-.117187.105469l-.011719.011719-.117187.105469c-.125.113281-.242188.21875-.363281.332031l-.011719.011719c-.125.113281-.238281.214843-.359375.328125l-.011719.011718-.109375.097657-.011719.011719c-.125.113281-.238281.21875-.359375.332031l-.007812.007812-.109375.101563-.015625.011718c-.121094.113282-.234375.222657-.359375.335938l-.003907.003906c-.039062.035156-.074218.066406-.113281.105469l-.007812.007813c-.121094.113281-.238281.21875-.359375.335937l-.007813.007813-.109375.101562-.011718.011719c-.121094.113281-.234376.222656-.355469.335937l-.007813.007813-.117187.109375c-.121094.113281-.242188.230468-.363281.34375-.160157.152344-.320313.304687-.480469.457031l-.003907.003906-.117187.113281v.003907c-.121094.113281-.238281.226562-.359375.339843l-.003906.007813-.113282.109375-.003906.003906c-.082031.074219-.15625.148438-.238281.226563l-.007813.007812-.109374.105469-.007813.011719c-.121094.113281-.234375.222656-.351563.339843l-.003906.003907-.113281.109375-.117187.117187-.007813.003907c-.078125.078124-.152344.148437-.230469.226562l-.128906.128906-.113281.109375v.003907l-.234375.226562-.128906.128906-.109376.105469-.003906.003906c-.078125.078125-.148437.148438-.226562.226563l-.117188.117187-.015625.011719c-.117187.121094-.222656.222656-.339843.339844l-.019532.019531c-.027344.03125-.066406.070313-.097656.097656l-.011719.015625-.109375.109375h-.003906l-.222656.226563-.136719.136718-.105469.109376h-.003906l-.226562.230468-.128907.128906-.105469.109376-.003906.007812-.25.25-.085937.089844-.023438.023437c-.070312.070313-.148437.152344-.222656.226563v.003906l-.226563.226562-.007812.011719c-.078125.082031-.152344.15625-.230469.234375l-.105469.109375-.019531.019531-.097656.105469-.007813.007813c-.078124.082031-.152343.15625-.226562.234375l-.109375.109375-.019531.023437-.097656.101563-.007813.007812-.226563.234375-.007812.011719-.097656.101562-.023438.023438c-.027344.03125-.0625.066406-.089844.097656l-.015624.015625c-.078126.082031-.144532.152344-.222657.230469l-.011719.011719-.09375.101562-.019531.023438-.105469.109375c-.078124.078125-.148437.15625-.222656.234375l-.019531.019531-.089844.09375-.023437.023438-.09375.101562-.011719.011719c-.074219.082031-.140625.152343-.21875.234375l-.015625.015625-.089844.097656-.023437.023437-.09375.101563-.011719.011719c-.070312.074218-.144531.15625-.214844.230468l-.023437.023438-.082031.089844-.027344.03125-.097656.101562-.003907.007813c-.078125.082031-.144531.15625-.222656.234375l-.011719.015625-.09375.101562-.019531.019531c-.070313.078126-.144531.15625-.214844.234376l-.003906.003906c-.035156.035156-.070313.074218-.101563.109375l-.019531.023437-.085937.09375-.023438.023438-.101562.113281-.113282.121094-.003906.003906c-.03125.035156-.066406.074219-.101562.109375l-.015625.023438-.089844.09375-.019531.023437c-.070313.078125-.144532.160156-.214844.234375l-.003906.003906-.101563.113282-.015625.019531-.089844.097656-.019531.023437c-.070312.074219-.144531.15625-.214843.234376l-.007813.007812c-.03125.035156-.0625.070312-.09375.105469l-.023437.023437-.085938.097656-.019531.019532c-.070313.078125-.140625.160156-.210938.238281l-.007812.007813-.097657.109374-.019531.019532-.085937.097656-.019532.019531-.210937.238281-.007813.011719-.097656.105469-.015625.019531-.09375.105469-.011719.011719-.210937.238281-.015625.019531-.089844.097657-.023437.027343-.078125.09375-.023438.023438c-.074218.082031-.136718.152343-.207031.234375l-.015625.019531-.085938.097656-.023437.027344-.082031.09375-.023438.023437c-.066406.078126-.136718.15625-.203125.234376l-.023437.023437-.082032.09375-.023437.027344-.089844.105469-.007812.011718c-.074219.082032-.136719.15625-.210938.238282l-.015625.019531-.089844.101562-.015624.019531-.09375.109376-.011719.007812c-.066407.078125-.136719.164062-.207031.242188l-.015626.019531-.085937.101562-.019531.019531-.089844.105469-.015625.015625c-.035156.042969-.066406.078125-.101563.121094l-.007812.003906-.09375.113282-.019531.023437-.082031.097656-.023438.023438-.089844.105469-.007812.011718-.207032.242188-.019531.023437-.082031.097657-.019531.023437-.09375.109375-.007813.007812-.105468.121094-.003907.011719-.09375.105469-.023437.027344-.078125.09375-.023438.027343-.089843.105469-.007813.011719-.101563.121093-.015624.019532-.082032.097656-.027344.03125-.074218.089844-.027344.03125c-.027344.03125-.0625.070312-.089844.101562l-.007812.015625-.101563.121094-.011719.015625-.089843.105469-.019531.019531-.085938.105469-.011719.015625c-.070312.085937-.136719.160156-.207031.246094l-.007812.011718-.089844.105469-.019532.027344-.082031.097656-.019531.023437-.199219.242188-.015625.015625-.082031.101563-.023437.03125-.085938.101562-.011719.015625c-.070312.082031-.132812.160156-.203125.246094l-.011718.015625-.085938.105468-.015625.019532-.09375.109375-.007813.011719c-.070312.085937-.128906.160156-.199218.246093l-.015625.019531-.082031.101563-.023438.027344-.082031.101562-.015625.019531c-.070313.082032-.132813.160157-.199219.246094l-.011719.011719-.085937.105469-.019531.027344-.085938.105468-.011719.015625-.101562.125-.09375.117188-.019531.023437-.082032.101563-.019531.023437c-.03125.039063-.0625.082032-.09375.117188l-.101563.128906-.003906.007812-.09375.113282-.015625.023437-.078125.097657-.023437.027343-.082031.105469-.015626.015625-.09375.121094-.019531.027343-.078125.09375-.023437.03125-.074219.09375-.023438.03125-.089843.113282-.003907.003906-.097656.125-.011718.015625-.085938.109375-.019531.023438-.078125.101562-.019532.023438-.09375.117187v.003906l-.101562.125-.007812.011719-.085938.109375-.019531.027344-.078125.097656-.019532.027344-.191406.246093-.015625.019532-.082031.101562-.019531.027344-.078125.101562-.019532.023438c-.0625.082031-.125.164062-.1875.246094l-.023437.027344-.070313.09375-.027343.03125-.074219.097656-.019531.027344c-.0625.082031-.128907.164062-.191407.246093l-.011718.019531-.085938.109376-.011718.019531-.085938.105469-.011719.019531c-.066406.089843-.125.164062-.191406.25l-.019531.023437-.074219.101563-.023437.027343-.078126.105469-.011718.015625c-.0625.082032-.128906.167969-.191406.25l-.019532.027344-.074218.097656-.023438.027344-.078125.109375-.011719.015625c-.0625.082031-.128906.164062-.1875.25l-.023437.027344-.074219.097656-.015625.023438-.085937.113281-.007813.011719c-.0625.085937-.125.167968-.1875.25l-.023437.027343-.070313.101563-.023437.027344-.078126.109374-.011718.015626-.097656.125v.007812l-.089844.117188-.019532.027343-.074218.097657-.019532.027343-.085937.113281-.003906.011719c-.0625.082031-.125.167969-.1875.25l-.019531.03125-.074219.097657-.019531.027343-.085938.117188-.003906.003906-.09375.128906-.011719.019531-.078125.101563-.027344.039063-.066406.089843-.023438.03125-.078124.113281-.011719.011719-.089844.125-.019531.023438-.070313.097656-.027343.039063c-.023438.03125-.042969.058593-.066407.09375l-.023437.03125-.085938.121093h-.003906l-.089844.128907-.015625.015624-.074219.105469-.023437.035157-.070313.09375-.019531.027343-.089843.125c0 .003907.003906-.003906 0 0l-.09375.128907-.011719.019531-.074219.101562-.027344.039063-.0625.089844-.023437.03125c-.058594.078124-.121094.167968-.175781.246093l-.03125.042969-.058594.082031-.03125.046875-.0625.085938-.023438.03125c-.054687.078125-.121094.171875-.175781.253906l-.023437.027344-.066407.09375-.027343.039062-.066407.097656-.019531.027344c-.0625.089844-.113281.164063-.179688.253906l-.015624.023438-.070313.101562-.023437.03125-.078126.109376-.007812.011718-.183594.261719-.011718.019531-.074219.105469-.019531.027344c-.027344.039062-.054688.082031-.082032.121093l-.003906.003907c-.0625.089843-.121094.171875-.183594.261719l-.011718.019531-.074219.105469-.019531.03125-.078126.113281-.007812.011719-.089844.132812h-.003906l-.085938.128906-.015624.015625-.074219.113281-.015625.019532c-.089844.128906-.175782.261718-.265625.390625l-.015625.023437-.074219.105469-.015625.027344-.085938.121093v.003907l-.09375.132812-.003906.007813-.082031.125-.011719.015625-.074218.109375-.019532.027344-.082031.125-.09375.136718-.003906.007813-.082031.117187-.015626.027344-.070312.101562-.019531.03125c-.058594.085938-.117188.171876-.171875.257813l-.011719.015625-.078125.113281-.015625.027344-.085937.128906c-.058594.085938-.117188.175781-.175782.261719l-.003906.011719-.082031.121093-.015625.019532-.070313.109375-.015625.023437-.175781.261719-.007813.015625-.078124.117188-.011719.019531-.078125.113281-.011719.019531c-.058594.09375-.113281.175781-.171875.269531l-.007812.003907-.078126.121093-.015624.023438-.070313.109375-.015625.027344c-.058594.089843-.109375.167969-.171875.257812l-.011719.023438-.070312.109375-.019532.027344-.070312.109374-.011719.019532c-.0625.089844-.113281.171875-.171875.261718l-.015625.023438-.070312.109375-.015625.023437-.074219.117188-.011719.015625c-.058594.089844-.109375.171875-.167968.265625l-.011719.015625-.074219.121094-.011719.015625-.082031.125-.003906.007812c-.054688.085938-.113282.179688-.167969.265625l-.015625.023438-.070312.109375-.015626.027344-.074218.113281-.011719.015625c-.058594.09375-.109375.171875-.167969.265625l-.011718.023437-.074219.113282-.011719.019531c-.085938.136719-.164062.261719-.253906.402343l-.007813.015626-.078125.121093-.007812.011719c-.085938.140625-.164063.265625-.25.40625l-.011719.019531-.074219.121094-.011718.011719c-.085938.140625-.164063.265625-.25.40625l-.011719.019531-.070313.113281-.011718.023438c-.058594.089844-.109376.175781-.167969.269531l-.003907.007813-.074218.121093-.015625.027344-.074219.113281-.007812.015625c-.058594.09375-.109376.183594-.167969.273438v.003906l-.078125.128906-.015625.023438-.070313.117187-.007812.015625c-.058594.09375-.109375.179688-.167969.273438l-.003906.007812-.078125.125-.007813.015625-.078125.128906-.003906.007813c-.058594.09375-.109375.179687-.167969.273437l-.003906.011719-.074219.121094-.015625.023437-.070312.121094-.007813.011719c-.058594.09375-.109375.179687-.164062.273437l-.007813.015626-.070312.117187-.015625.027344-.070313.121093-.007812.007813c-.054688.09375-.105469.179687-.160157.273437l-.015624.023438-.066407.109375-.015625.027344-.070312.121093-.007813.011719c-.054687.09375-.101562.175781-.160156.269531l-.011719.023438-.066406.113281-.011719.023438-.078125.128906v.003906c-.054687.09375-.105468.183594-.164062.277344l-.007813.015625-.070312.117188-.011719.023437-.074219.125-.003906.007813-.082031.140624-.003906.011719-.070313.117188-.019531.035156-.058594.101563-.019531.03125-.070313.125-.003906.007812-.082031.136719-.003907.007812-.074218.128907-.011719.023437-.066406.113281-.011719.023438-.15625.273437-.007812.015625-.070313.117188-.011719.023437-.066406.117188-.011719.019531-.15625.277344-.007812.011718-.066407.121094-.09375.164063c-.050781.089843-.101562.179687-.152343.269531l-.011719.023438-.066406.113281-.078125.136719-.011719.027343-.152344.273438-.011718.015625-.066407.121094-.011719.023437-.066406.121094-.007812.015625c-.054688.09375-.101563.179687-.152344.273437l-.015625.023438-.0625.117187-.011719.023438-.066406.117187-.011719.019531c-.050781.09375-.097656.179688-.152343.277344l-.007813.015625-.070313.125-.007812.015625c-.023438.046875-.042969.082032-.070312.128906l-.003907.007813-.152343.277344-.011719.023437-.0625.117188-.011719.023437-.070312.125-.003907.007813c-.054687.097656-.101562.1875-.152343.285156l-.007813.011719-.066406.125-.011719.019531-.070312.128906-.003907.007813-.148437.277343-.011719.023438-.066406.121094-.007813.019531c-.078125.144531-.148437.273437-.222656.417969l-.011719.019531-.066406.121094-.007813.015625c-.078124.144531-.144531.277344-.222656.421875l-.011718.019531-.066407.125-.003906.011719c-.078125.144531-.148437.28125-.222656.425781l-.007813.011719c-.023437.050781-.042968.085937-.070312.132812l-.003906.007813c-.074219.144531-.144532.28125-.21875.425781l-.011719.015625-.066407.136719c-.003906.003906 0 0-.003906.003906-.074218.144531-.144531.285156-.222656.429687l-.003906.011719c-.101563.195313-.195313.375-.292969.570313l-.007813.011718-.070312.140626c-.074219.148437-.148438.289062-.222656.433593l-.003906.011719c-.097657.195312-.1875.375-.285157.570312l-.011719.015626c-.097656.195312-.1875.375-.285156.570312l-.007812.015625c-.070313.148437-.140625.285156-.210938.429687l-.003906.011719-.066406.128907-.007813.019531c-.074219.144531-.140625.28125-.210937.429687l-.003906.003906-.066407.140626-.007812.007812c-.09375.195312-.1875.386719-.28125.582031l-.003907.003907c-.070312.148437-.140624.292968-.210937.441406l-.003906.003906-.066407.140625-.003906.007813c-.070312.148437-.140625.289062-.210937.433593l-.003907.011719-.0625.136719-.007812.007812c-.164062.347657-.324219.6875-.488281 1.035157 0 .003906.003906-.003907 0 0-6.160157 13.097656-10.820313 26.847656-13.882813 40.996093-2.691406 12.566407 5.320313 24.9375 17.886719 27.625 12.550781 2.683594 24.90625-5.296875 27.617187-17.84375 15.464844-71.464843 80.722657-121.378906 158.699219-121.378906 12.851563.007813 23.277344-10.410156 23.28125-23.261719.003907-12.851562-10.410156-23.277344-23.265625-23.28125-.003906 0-.011718 0-.015625 0zm0 0" fill="#df8d00"/><path d="m324.800781 163.410156h-.226562c-.050781 0-.078125 0-.125 0h-.058594c-.050781 0-.101563 0-.152344 0h-.375l-.050781.003906c-.046875 0-.097656 0-.144531 0h-.4375l-.136719.003907h-.039062c-.0625 0-.113282 0-.179688 0h-.011719c-.054687 0-.105469 0-.164062 0h-.046875l-.128906.003906h-.050782c-.054687 0-.113281 0-.167968 0h-.007813c-.054687.003906-.117187.003906-.171875.003906h-.183594l-.050781.003907h-.179687l-.167969.003906h-.042969l-.132812.003906h-.183594l-.050782.003906h-.171874l-.035157.003906h-.195312l-.125.003907h-.050781l-.171876.003906h-.003906l-.167968.003906h-.054688l-.128906.003907h-.050782c-.046874 0-.105468.003906-.152343.003906h-.023438c-.054687 0-.113281 0-.171875.003906h-.046875l-.128906.003906h-.054687l-.132813.003906h-.042969c-.0625.003907-.105468.003907-.167968.003907h-.050782l-.125.003906-.0625.003906h-.113281l-.0625.003907-.167969.003906h-.03125l-.140625.003906h-.058593l-.121094.003906-.054688.003906c-.046875 0-.109375.003907-.15625.003907h-.015625l-.175781.007812h-.042969l-.132812.003907h-.050781c-.046876.003906-.097657.003906-.148438.007812h-.027344l-.171875.003906-.042969.003906-.132812.003907h-.050781c-.050781.003906-.089844.003906-.136719.003906l-.039062.003906-.175782.003907-.019531.003906-.152344.003906h-.054687l-.128906.007812h-.042969l-.175781.007813h-.007813l-.164063.003906-.054687.003907c-.046875.003906-.074219.003906-.121094.003906l-.054687.003906c-.058594 0-.109375.003906-.164063.007812h-.007812l-.175781.007813h-.042969c-.046875.003906-.085938.003906-.132813.003906l-.050781.003907-.136719.007812h-.039062c-.0625.003906-.109375.003906-.171875.007812h-.03125l-.144531.007813h-.046876l-.140624.007813h-.035157c-.0625.003906-.113281.007812-.175781.007812l-.023438.003906c-.046874 0-.101562.003906-.148437.003906l-.050781.003907c-.050782.003906-.078125.003906-.125.007812h-.054688c-.054687.003907-.109375.007813-.164062.007813h-.007813l-.167969.007812-.054687.003906-.121094.007813h-.054687l-.136719.007813-.039063.003906-.167968.007812h-.050782l-.117187.007813-.066406.003906-.117188.007813h-.050781c-.058594.003906-.113281.007812-.167969.007812l-.039062.003906-.136719.007813-.050781.003906-.125.003906-.054688.003907c-.054687.003906-.113281.007812-.167969.011718h-.011718l-.160156.007813-.050782.003906-.128906.007813-.046875.003906-.15625.007812h-.019531l-.171875.011719-.042969.003906c-.046875 0-.082031.003907-.128906.007813h-.050782l-.144531.011718h-.027343l-.171876.011719-.042968.003907-.132813.007812-.054687.003906c-.039063 0-.082032.003906-.121094.007813l-.050781.003906-.167969.007813-.03125.003906-.140625.007812-.175781.011719-.054688.003906c-.054687.003907-.105468.007813-.160156.011719h-.023438l-.15625.011719-.050781.003906-.121093.007813-.058594.003906-.136719.011718h-.03125l-.171875.011719-.042969.003907-.128906.007812-.050781.003906-.125.011719-.050782.003906-.167968.011719-.042969.003906-.125.007813-.058594.003906-.125.011719h-.046875c-.054687.007812-.113281.011718-.167968.015625h-.023438l-.148438.011719-.050781.003906-.125.007812-.050781.003906-.164062.015626h-.003907l-.171875.011718-.050781.003906c-.046875.003907-.078125.007813-.125.011719l-.050781.003907-.148438.011718-.019531.003906c-.0625.003907-.109375.007813-.171875.011719l-.171875.015625-.054687.003906-.132813.011719h-.035156l-.171875.015625-.027344.003906-.140625.011719-.054687.003907-.121094.011718-.054688.003906c-.054687.003907-.113281.007813-.167968.015626h-.011719c-.046875.003906-.105469.007812-.152344.011718l-.0625.007813-.113281.007812-.054688.003907-.136718.015624h-.035157l-.164062.015626-.050781.003906-.121094.011718-.054688.003907c-.046875.003906-.085937.007812-.132812.011719l-.039063.003906-.167969.015625-.046874.003906c-.039063.003906-.082032.007813-.121094.011719l-.058594.007812c-.039062.003906-.082031.007813-.121094.011719l-.050781.003906c-.054687.003907-.109375.011719-.164063.015625l-.035156.003906c-.046875.003907-.085937.007813-.132812.011719l-.058594.003907c-.046875.007812-.070312.007812-.117188.011718l-.054687.007813-.15625.015625h-.011719l-.164062.015625-.058594.007812-.113281.007813-.058594.007812-.140625.015625h-.023438c-.054687.007813-.117187.011719-.171874.019531l-.171876.015626-.050781.007812c-.046875.003906-.078125.007812-.125.011719l-.046875.003906c-.054687.003906-.113281.011719-.167968.015625l-.03125.003906-.132813.015625-.0625.003907-.109375.011718-.058594.007813c-.046875.003906-.105468.011719-.148437.015625l-.054688.007812-.125.011719-.066406.007813-.101563.011718-.066406.007813-.125.011719-.042968.003906-.160157.019531-.058593.003906-.109376.011719-.0625.007812c-.039062.003907-.082031.007813-.121093.015626l-.046875.003906c-.0625.007812-.105469.011718-.164063.019531l-.039062.003906c-.046875.003907-.082031.007813-.128907.011719l-.058593.007812-.121094.015626-.046875.003906-.167969.019531-.019531.003906-.148438.015625-.046874.007813-.125.011719-.046876.007812c-.109374.011719-.230468.027344-.335937.039062l-.050781.003907-.125.015625-.046875.003906-.144531.019531-.023438.003907c-.0625.007812-.109375.011718-.171875.019531l-.03125.003906-.140625.015625-.042969.007812-.148437.015626-.019532.003906-.171874.019531-.027344.003906-.144532.019531-.042968.003907-.136719.015625-.035156.007812-.335938.039063-.050781.007812-.125.015625-.042969.007813c-.054687.003906-.109375.011719-.164062.019531h-.007813c-.050781.007812-.113281.015625-.167968.023438l-.046876.003906-.175781.023437-.164062.023438c-.0625.007812-.105469.011719-.167969.019531l-.039062.007812c-.046876.003907-.085938.011719-.132813.015626l-.042969.007812c-.046875.003906-.085937.011719-.128906.015625l-.046875.007813c-.054687.007812-.109375.015624-.164063.019531l-.03125.007812-.132812.015625-.054688.007813-.125.015625-.042968.007812c-.109375.015625-.230469.03125-.335938.046875l-.039062.003907-.132813.019531-.046875.003906-.144531.023437h-.023437l-.164063.023438-.046875.007812-.125.015626-.046875.007812c-.046875.007812-.089844.011719-.136719.019531l-.03125.003907c-.0625.007812-.109375.015624-.167968.023437l-.027344.003906c-.046875.007813-.097656.015625-.140625.019531l-.046875.007813-.128906.019531-.042969.003906-.164063.027344h-.023437l-.144531.023438-.050782.007812-.117187.015625-.050781.007813c-.109376.015625-.230469.035156-.335938.050781l-.039062.003906-.128907.019531-.046875.007813-.132812.019531-.035156.003906c-.058594.011719-.105469.015626-.167969.027344l-.03125.003906-.132813.019532-.046875.007812-.136719.019532-.03125.007812c-.0625.007812-.109374.015625-.171874.023438l-.015626.003906-.148437.023437-.046875.007813-.128906.019531-.039063.003906c-.105469.019531-.226562.035157-.332031.054688l-.046875.007812-.125.019531-.046875.007813-.160156.023437h-.003906l-.167969.027344-.042969.007813-.121094.019531-.054687.007812c-.046875.007813-.085938.015626-.132813.023438l-.03125.003906-.164062.027344-.035156.003906-.132813.023438-.046875.007812c-.042969.007813-.089844.011719-.132812.019532l-.03125.007812-.171876.027344h-.003906l-.160156.027344-.042969.007812-.132812.023438-.035157.003906c-.105468.019531-.230468.039062-.335937.058594l-.039063.003906c-.046874.007812-.085937.015625-.132812.023437l-.039062.007813-.15625.023437-.011719.003907-.167969.027343-.035156.007813-.132813.023437-.039062.007813-.140625.023437-.03125.003907c-.058594.011718-.109375.019531-.167969.03125h-.011719l-.152344.027343-.042968.007813-.136719.023437-.03125.003907c-.113281.019531-.222656.039062-.332031.0625l-.042969.003906c-.042969.007812-.082031.015625-.125.023437l-.046875.007813c-.054688.011718-.105469.019531-.160156.03125h-.003906c-.050782.007812-.113282.019531-.167969.027344l-.035157.007812-.132812.023438-.042969.007812-.136719.027344-.03125.003906c-.058593.011719-.105468.019531-.164062.03125l-.027344.003906-.136718.027344-.046876.007812-.132812.023438-.03125.007812-.167969.027344-.019531.003906c-.042969.007813-.105469.019532-.148438.027344l-.039062.007813-.171875.03125-.164063.03125c-.050781.011719-.105468.019531-.160156.03125l-.054687.011719-.109375.019531-.054688.011719c-.042968.007812-.089844.015624-.132812.023437l-.03125.003906-.160156.03125-.042969.007813-.175781.035156c-.042969.007812-.082032.015625-.125.023438l-.035157.007812c-.058593.011719-.101562.019531-.164062.03125l-.03125.007812c-.046875.007813-.085938.015626-.132813.023438l-.046875.007812c-.042969.011719-.078125.015626-.121093.023438l-.046876.011719c-.050781.007812-.109374.019531-.164062.03125l-.160156.03125-.042969.007812-.128906.027344-.039063.007813-.164062.03125c-.050782.011718-.113282.023437-.164063.035156l-.042969.007812c-.042968.007813-.078124.015625-.121093.023438l-.050781.011718c-.046876.007813-.09375.015626-.136719.027344l-.023438.003906-.160156.03125-.046875.007813c-.039062.007813-.082031.019531-.121094.027344l-.050781.007812c-.042969.011719-.082031.019531-.125.027344l-.035156.007813-.164063.03125-.023437.003906c-.042969.011718-.097657.023437-.140625.03125l-.042969.007812-.132813.027344-.03125.007812-.328124.066407-.046876.007812c-.042968.011719-.074218.015625-.117187.027344l-.050781.011719-.136719.027344-.023437.003906-.164063.035156-.039063.007812-.121093.027344-.050781.007813-.125.027343-.039063.007813c-.058594.011719-.101563.023437-.160156.035156l-.039063.007813c-.042968.007812-.074218.015625-.121094.027344l-.050781.011718c-.046875.007813-.074219.015625-.117187.023438l-.050782.011718-.152343.03125-.042969.011719c-.035156.007813-.082031.015625-.121094.023438l-.050781.011719-.117187.027343-.046876.011719c-.101562.023438-.214843.046875-.320312.070312l-.050781.011719-.113281.023438-.050782.011719-.132812.03125-.027344.003906c-.058594.011718-.101562.023437-.160156.035156l-.039063.007812c-.042969.011719-.078125.019532-.125.027344l-.046875.011719-.125.027344-.039062.007812c-.058594.015625-.101563.023438-.160156.039063l-.023438.003906-.140625.03125-.039063.011719-.128906.027343-.039062.007813-.328125.074219-.03125.007812c-.042969.011719-.089844.019532-.132813.03125l-.035156.007813c-.046875.011719-.105469.023437-.152344.035156l-.015625.003906-.160156.035157-.035156.007812-.128907.03125-.042968.011719-.140625.03125-.019531.003906c-.058594.015625-.105469.027344-.164063.039063l-.027344.007812-.136719.03125-.039062.007812-.132812.03125-.03125.007813-.167969.039063h-.003907c-.050781.015624-.101562.027343-.152343.039062l-.042969.007812-.128906.03125-.035156.007813-.328126.078125-.027343.007812c-.042969.011719-.09375.023438-.136719.03125l-.035156.011719c-.109375.023438-.21875.050781-.328125.078125l-.027344.007813-.136719.03125-.035156.007812-.140625.035157-.023437.007812-.167969.039062-.007813.003907-.152344.035156-.035156.007813-.140625.035156-.019531.007812c-.117188.027344-.21875.050782-.335938.082032l-.019531.003906-.152343.039062-.015626.003906c-.117187.027344-.21875.054688-.335937.082032l-.027344.007812-.140625.035156-.027344.007813c-.050781.011719-.101562.027344-.152343.039063l-.011719.003906c-.058594.011718-.109375.027344-.167969.042968h-.011719l-.148437.039063-.035156.007813-.140625.035156-.023438.007812-.164062.042969h-.011719l-.148437.039063-.035157.011718c-.042969.007813-.085937.019532-.128906.03125l-.039063.011719c-.105468.027344-.214843.054687-.324218.082031l-.027344.007813-.140625.039062-.027344.003907c-.113281.03125-.210937.058593-.328125.085937l-.023437.007813-.136719.035156-.035156.011718-.144532.035157-.015624.003906-.164063.046875-.023437.003906c-.042969.011719-.101563.027344-.144532.039063l-.027344.007812-.140624.035157-.023438.007812-.324219.085938-.035156.011718c-.042969.011719-.089844.023438-.132813.035156l-.03125.007813-.328124.089844-.023438.003906-.132812.039063-.039063.007812-.148437.042969h-.007813c-.058594.015625-.109375.03125-.167969.046875l-.019531.007812c-.042969.011719-.097656.023438-.140625.035156l-.035156.011719-.136719.035157-.023437.007812c-.109376.03125-.214844.0625-.324219.089844l-.03125.011718-.136719.035157-.027344.007812c-.113281.03125-.210937.058594-.324218.09375l-.027344.003907-.164063.046874c-.109375.03125-.21875.0625-.328125.09375l-.023437.007813c-.042969.011719-.09375.027344-.136719.039063l-.03125.007812c-.050781.015625-.101562.027344-.152344.042969l-.007812.003906-.167969.046875-.007813.003906c-.050781.011719-.097656.027344-.148437.039063l-.035156.011719-.140625.042968-.015625.003906-.519531.148438c-.113282.035156-.210938.0625-.324219.097656l-.019531.003906-.148438.042969-.019531.007813c-.113281.03125-.21875.0625-.332031.097656h-.007813l-.152344.046875-.023437.007813-.160156.046874c-.113282.03125-.214844.0625-.328126.097657l-.023437.007812-.148437.042969-.015626.003906c-.105468.035156-.21875.066406-.324218.097656l-.03125.011719c-.042969.011719-.089844.027344-.132813.039063l-.027343.007812-.324219.097656-.015625.007813c-.050782.015625-.097656.027344-.148438.042969l-.023437.007812-.324219.101563h-.011719l-.148437.046875-.027344.007812-.140625.042969-.023437.007813c-.113282.035156-.207032.066406-.320313.101562l-.027344.007812c-.042969.011719-.097656.027344-.140625.042969l-.019531.003907c-.113281.035156-.210937.066406-.324219.101562l-.023437.007812-.136719.042969-.027344.011719-.324218.101562-.015626.003907-.144531.046875-.023437.007812c-.054688.015625-.09375.027344-.148438.046875l-.011718.003907-.320313.101562-.035156.011719c-.039063.011719-.09375.03125-.136719.042969l-.019531.007812-.320313.101562-.027344.011719-.128906.039063-.039062.011718c-.097656.03125-.210938.070313-.308594.101563l-.164062.054687-.03125.007813-.148438.050781h-.007812l-.160157.054688-.019531.003906-.136719.046875-.039062.011719-.152344.050781-.15625.050781-.027344.011719-.128906.042969-.039063.011718c-.042968.015626-.085937.027344-.128906.042969l-.027344.007813c-.105468.035156-.210937.070312-.3125.105468l-.164062.054688-.027344.011719c-.105468.035156-.214844.070312-.316406.105469l-.023438.007812-.136718.046875-.027344.007813-.152344.050781-.003906.003906-.320312.109375-.027344.007812-.136719.046876-.023437.007812-.316407.109375-.023437.007813c-.042969.015624-.09375.03125-.136719.046874l-.027344.007813c-.109375.039063-.203125.070313-.3125.109375l-.023437.007812-.136719.046876-.027344.011718c-.105469.035156-.214843.074219-.316406.109375l-.015625.007813-.144531.046875-.023438.007812c-.046875.019531-.097656.035157-.144531.050781l-.011719.007813c-.105469.035156-.210937.074219-.316406.109375l-.03125.011719c-.042969.015625-.089844.03125-.132813.046875l-.023437.007812-.316406.113282-.023438.007812-.132812.046875-.03125.011719c-.101563.035156-.210938.074218-.3125.113281l-.019531.003906-.136719.050781-.027344.011719-.140625.050781-.015625.003907-.160156.058593h-.003907c-.046874.019532-.101562.039063-.148437.054688l-.03125.011719c-.039063.015625-.09375.035156-.136719.050781l-.019531.003906c-.101563.039063-.207031.078125-.3125.117188l-.027344.007812-.128906.050782-.027344.007812c-.105469.039062-.207031.078125-.3125.113281l-.027343.011719c-.042969.015625-.089844.03125-.128907.046875l-.027343.011719c-.105469.039062-.210938.078125-.316407.117187l-.015625.003907-.132812.050781-.035156.011719c-.050782.019531-.097657.039062-.144532.054687l-.003906.003906c-.054688.019531-.109375.039063-.164062.058594l-.007813.003906-.144531.054688-.03125.011719-.121094.046874-.035156.011719c-.09375.035157-.210938.078125-.304688.117188l-.03125.007812-.132812.050781-.019532.007813c-.109374.042969-.207031.078125-.3125.121094l-.023437.007812-.128906.050781-.035157.011719-.140624.054688-.011719.003906c-.050781.019531-.101563.039063-.15625.058594l-.019531.007812-.132813.050781-.027344.011719-.140625.054688-.015625.003906c-.101562.042969-.203125.082031-.304687.121094l-.035156.011719c-.042969.015624-.085938.035156-.125.050781l-.027344.011719c-.105469.039062-.203125.078124-.304688.117187l-.15625.058594-.035156.015625-.148438.058594-.15625.0625-.023437.007812-.128906.050781-.03125.011719-.132813.054688-.019531.007812c-.101563.039062-.207031.082031-.308594.121094l-.027343.011718-.132813.050782-.023437.011718c-.054688.019532-.097657.039063-.152344.058594l-.007813.003906c-.046875.019532-.097656.039063-.144531.058594l-.03125.011719c-.039062.015625-.082031.035156-.125.050781l-.03125.011719-.304688.121094-.023437.011719c-.042969.015624-.085937.035156-.125.050781l-.035156.011719c-.046875.019531-.09375.039062-.140625.058593l-.007813.003907c-.054687.019531-.101562.039062-.15625.0625l-.019531.007812-.128906.050781-.035156.015625c-.042969.015625-.09375.039063-.132813.054688l-.015625.007812c-.101562.039063-.207031.082032-.308594.125l-.027344.011719-.128906.050781-.023437.011719c-.109375.042969-.199219.082031-.304688.125l-.027343.011719-.125.050781-.03125.015625-.300782.125-.027344.007812c-.042968.019532-.085937.035157-.125.054688l-.035156.011719-.136718.058593-.011719.003907c-.050781.023437-.097657.042969-.148438.0625l-.027343.011719-.125.050781-.035157.015625-.125.054687-.023437.007813-.152344.066406-.015625.003906c-.039063.019532-.089844.039063-.128906.054688l-.046875.019531-.105469.046875-.039063.015625c-.09375.039063-.203124.085937-.296874.125l-.035157.015625c-.039062.015625-.074219.03125-.113281.050781l-.039062.015625-.132813.054688-.015625.007812-.148438.0625-.03125.011719-.113281.050781-.042969.019532-.113281.050781-.035156.011719c-.054687.023437-.097656.042968-.148437.066406l-.007813.003906c-.046875.019531-.09375.039062-.140625.058594l-.03125.011718-.125.058594-.027344.007813-.296875.132812-.03125.011719-.117187.050781-.039063.019531c-.046875.019532-.09375.039063-.140625.058594l-.003906.003906c-.046875.019532-.097656.042969-.144531.0625l-.039063.015626c-.042968.019531-.074218.03125-.113281.050781l-.039063.015625c-.039062.019531-.082031.039062-.121093.054687l-.023438.011719-.148437.0625-.027344.011719c-.039062.019531-.078125.035156-.117188.054687l-.042968.019532-.113282.050781-.03125.011719-.148437.066406-.011719.003906-.136718.0625-.035157.015625-.109375.046875-.042968.019531c-.09375.042969-.195313.085938-.289063.128907l-.042969.019531-.101562.046875-.046875.019531c-.039063.019531-.070313.035156-.113281.050781l-.03125.015625-.175782.078125-.109375.050782-.046875.019531c-.039062.019531-.066406.03125-.105468.050781l-.039063.015625-.140625.0625-.046875.023437-.09375.042969-.058594.027344-.089843.039063-.050782.023437-.140625.066406-.007812.003907c-.046875.019531-.085938.039062-.128907.058593l-.054687.023438-.089844.042969-.054687.023437-.117188.054687-.023437.011719-.136719.0625-.050781.023438-.09375.042969-.054688.027343-.140625.0625c-.042968.019531-.089844.042969-.136718.0625l-.046876.023438c-.03125.015625-.066406.03125-.097656.046875l-.050781.023437-.09375.042969-.050781.023438-.136719.0625-.039063.019531-.101562.046875-.054688.023437-.140624.070313-.117188.054687-.054688.023438c-.035156.015625-.074218.035156-.105468.050781l-.058594.027344-.082031.039062-.058594.027344-.097656.046875-.042969.019531-.132812.0625-.050782.027344-.097656.042969-.046875.023437c-.03125.015625-.070313.035156-.105469.050782l-.039062.019531c-.050782.023437-.085938.039062-.136719.066406l-.039063.015625-.101562.050781-.050781.023438-.097657.046875-.042968.019531c-.046875.023437-.09375.046875-.140625.070313l-.019531.007812-.121094.058594-.042969.019531c-.039063.019531-.066406.03125-.105469.050781l-.042968.023438-.121094.058594-.023438.007812c-.042968.023438-.085937.042969-.132812.066406l-.050782.023438-.089843.042968-.054688.027344c-.035156.015625-.058593.027344-.089843.042969l-.054688.027344c-.039062.019531-.09375.046875-.128906.0625l-.042969.023437-.101563.046875-.050781.027344-.09375.042969-.179687.089844-.046875.019531-.097657.050781-.050781.027344-.085937.042968-.058594.023438-.125.0625-.035156.019531-.25.125-.054688.023438-.105468.054687-.035157.015625-.132812.066407-.050781.027343-.085938.042969-.058594.03125-.09375.042969-.042968.023437c-.039063.019532-.097657.046875-.136719.066406l-.046875.023438-.089844.046875-.058594.03125-.140625.070313-.128906.0625-.042969.023437-.089844.046875-.0625.03125-.082031.039062-.054687.027344c-.039063.019532-.074219.039063-.113282.058594l-.035156.019531-.121094.0625-.054687.023438-.082031.046875-.058594.027344-.09375.046874-.042969.023438-.128906.066406-.140625.070313-.058594.03125-.085937.042969-.050781.027343-.128907.066407-.132812.066406-.070313.039062-.070312.035156-.066406.03125-.085938.046876-.101562.050781-.070313.039062-.132813.066407-.074218.039062-.070313.035156-.109375.058594-.074218.039062-.070313.039063-.066406.03125-.070313.039063-.066406.03125-.121094.066406-.066406.035156-.074219.039062-.0625.03125-.070312.039063-.066407.035156-.070312.035157-.050781.027343-.144531.078125-.058594.027344-.070313.039062-.066406.035157c-.023437.011719-.042969.023437-.070313.039062l-.082031.042969-.089843.046875-.082032.042969-.066406.035156-.074219.039062-.0625.035157-.070312.039062-.097657.050781-.085937.046876-.074219.039062-.058594.03125-.078124.042969-.054688.027343-.074219.042969-.046875.023438-.144531.078125-.0625.035156-.074219.039062-.054687.03125-.078125.039063-.058594.03125c-.042969.023437-.082031.046875-.125.070313l-.066406.035156-.074219.039062-.054687.03125-.078126.042969-.050781.027344-.148437.082031-.050782.027344-.078124.042968-.046876.027344-.082031.042969-.046875.027344c-.09375.050781-.191406.105469-.285156.15625l-.039062.023437-.128907.070313c-.101562.054687-.203125.109375-.304687.167969l-.019532.007812-.097656.054688-.027344.015624-.308593.171876-.023438.011718-.089843.050782-.039063.023437-.089844.050781-.027343.015625-.207032.113281c-.007812.003907.003906 0 0 0l-.09375.054688-.035156.019531-.09375.050781-.023438.015626c-.101562.054687-.207031.113281-.308593.171874l-.027344.015626c-.03125.019531-.0625.035156-.097656.054687l-.019531.011719c-.105469.0625-.210938.121094-.320313.183594l-.011719.003906-.101562.058594-.019532.011718c-.148437.085938-.292968.167969-.441406.25l-.011718.007813-.101563.058593-.015625.007813c-.109375.0625-.21875.125-.328125.191406h-.003906l-.109375.0625-.011719.007813c-.144531.082031-.292969.167968-.4375.253906l-.015625.007812c-.144531.085938-.289062.167969-.4375.253907l-.015625.007812c-.144531.085938-.285156.171875-.433594.253907l-.015625.011718c-7.167968 4.207032-14.078125 8.839844-20.6875 13.882813-10.21875 7.792969-12.1875 22.398437-4.390625 32.617187 7.792969 10.21875 22.398438 12.1875 32.617188 4.390625 28.734375-21.917969 64.007812-33.5 102.007812-33.5h1.25c.171875 0 .34375 0 .515625-.003906.1875.003906.375.007813.5625.011719l1.117188.007812c.070312.003906.140625.003906.210937.003906 12.851563.015626 23.285157-10.390624 23.304688-23.242187.015625-12.769531-10.257813-23.164063-23.023438-23.304687-.425781-.003907-.851562-.007813-1.277343-.011719-.070313 0-.140626 0-.210938 0-.144531 0-.285156.003906-.425781.003906-.1875-.003906-.375-.007813-.5625-.007813h-.082031c-.457032-.003906-.917969-.003906-1.375-.003906zm0 0" fill="#cc7006"/><path d="m467.578125 231.453125c-19.285156.023437-34.898437 15.675781-34.871094 34.960937.007813 6.125 1.625 12.136719 4.691407 17.4375 3.316406 5.839844 4.96875 12.480469 4.785156 19.195313 0 9.132813-2.289063 18.722656-6.800782 28.5-.050781.105469-.097656.214844-.148437.320313-.050781.109374-.105469.222656-.15625.332031-17.554687 37.261719-74.519531 87.105469-177.28125 104.949219-19.546875 3.488281-39.359375 5.296874-59.210937 5.40625-45.042969 0-82.371094-10.617188-105.109376-29.890626-14.6875-12.488281-36.71875-10.707031-49.207031 3.980469s-10.707031 36.71875 3.980469 49.207031c.027344.023438.054688.046876.082031.070313 25.015625 21.207031 59.070313 36.117187 100.46875 42.6875l.015625.003906c.273438.042969.550782.085938.824219.128907h.003906l.164063.023437c.007812.003906 0 0 .003906.003906.558594.085938 1.113281.167969 1.671875.253907h.007813c.335937.050781.667968.097656 1.003906.148437h.007812c.28125.039063.558594.078125.839844.121094l.164062.023437h.007813c.222656.03125.441406.0625.664063.09375l.023437.003906c.050781.003907.097656.011719.152344.019532h.007812c.28125.039062.558594.078125.839844.117187h.007813c.226562.03125.449218.058594.675781.089844l.007812.003906c.054688.003907.109375.011719.160157.019531h.007812c.28125.039063.5625.074219.84375.113282h.015625c.222656.03125.449219.058594.671875.085937h.003906l.164063.023438h.015625c.046875.007812.097656.015625.148437.019531l.019531.003906.15625.019532h.011719c.167969.023437.335938.042968.507813.0625l.007812.003906c.054688.003906.109375.011718.164063.019531h.003906l.164063.019531h.007812c.226562.027344.453125.054688.679688.082032l.011718.003906.160156.019531h.007813c.226563.027344.453125.054687.679687.078125l.015626.003906.148437.015625.023437.003907c.222657.027343.453126.050781.675782.078124h.019531l.148437.019532h.019532l.152344.019531h.019531c.167969.019531.34375.039063.511719.058594.054687.007812.105468.011719.160156.019531l.027344.003906.152343.015625h.011719c.171875.019531.339844.039063.511719.058594h.011719c.050781.003906.105468.011719.15625.015625l.023437.003906c.046875.003906.089844.007813.136719.011719l.042968.007813.132813.011718.027344.003906c.113281.011719.226562.023438.339843.035157h.003907l.160156.019531h.027344l.148437.015625.019532.003906.148437.015625h.023437c.167969.019532.339844.039063.507813.054688h.023437l.136719.015625.042969.003906c.046875.003906.085938.007813.128906.011719l.039063.003906.152343.015625h.007813c.113281.011719.230469.023437.34375.035156l.019531.003907c.050782.003906.097656.007812.148438.015624h.027344c.046874.003907.09375.007813.140624.015626l.035157.003906.140625.011718.023437.003907c.167969.015625.339844.03125.507813.046875l.027344.003906.148437.011719.023437.003906c.046876.003906.097657.007813.144532.015625h.027344c.167968.015625.339843.03125.507812.046875l.035156.003906.128906.011719.050782.003906c.039062.003906.082031.007813.121094.011719l.039062.003906c.050781.003907.097656.007813.148438.015625h.019531l.339843.03125h.023438c.050781.007813.09375.011719.144531.015625h.03125l.140625.015625h.03125l.140625.011719.035157.003906c.050781.003907.105468.011719.15625.015625h.007812c.058594.003906.113281.007813.171875.015625h.019531c.050782.003907.097656.007813.148438.011719l.035156.003906c.046875.003906.089844.007813.132812.011719l.042969.003906c.042969.003907.085938.007813.128907.011719l.039062.003906c.117188.007813.222656.019532.335938.027344l.03125.003906.136718.011719.046875.003906.117188.007813.054687.003906c.039063.003906.082032.007812.121094.011719l.1875.015625h.023438c.113281.011718.230468.019531.34375.027344l.023437.003906.144531.011718.035156.003907.132813.007812.042969.003907.132812.011718.035156.003906c.054688.003907.109376.007813.164063.011719h.003906l.171875.015625h.027344c.046875.003906.09375.007813.140625.011719l.039063.003906c.042968.003907.085937.003907.128906.007813l.046875.003906.125.011719h.042969l.152343.011719.015625.003906c.113282.007812.226563.015625.339844.023437l.039062.003907.125.007812.054688.003906c.042969.003906.082031.007813.125.011719h.039062c.046876.003906.097657.007813.144532.011719l.027344.003906c.109374.007812.226562.015625.335937.023438l.050781.003906.175782.011718.105468.007813.066406.003906.105469.007813.0625.003906.128907.007812.039062.003907c.054688.003906.101562.007812.160156.011719l.0625.003906.105469.007812.066406.003906.101563.007813.0625.003906.113281.007813.058594.003906.136719.007812h.023437l.171875.011719.035156.003907c.046875.003906.089844.003906.136719.007812l.050781.003906.109375.007813.066407.003906c.035156 0 .070312.003906.109374.007813l.058594.003906.121094.007812h.046875l.164063.011719.03125.003906.136718.007813.054688.003906.117187.007812h.054688l.121093.007813.050782.003906.128906.007813.039062.003906.152344.007812h.019532l.167968.011719h.039063l.128906.007813.054687.003906.121094.007812h.046875l.136719.011719h.03125l.351562.019531h.003907l.160156.011719h.046875l.125.007813.175781.011718h.046875l.140625.007813.03125.003906c.113281.003907.226563.011719.339844.015625l.050781.003906.121094.007813h.054688l.117187.007813.054687.003906.121094.003906.050782.003906.132812.007813h.050781c.054688.003906.101563.007812.152344.007812l.054687.003907c.039063 0 .082032.003906.117188.003906l.0625.003906.109375.007812h.058594l.113281.007813.0625.003906c.042969 0 .089844.003907.128906.003907l.039063.003906c.054687 0 .109375.003906.164062.007812h.058594l.113281.007813.070313.003906.09375.003906.074219.003907.101562.003906.070312.003906.105469.003906.0625.003906.164063.007813h.046875l.125.007813.066406.003906.097656.003906.074219.003906c.035156 0 .070312 0 .101562.003906h.066407l.121093.007813h.046876l.148437.007813h.027344c.058593.003906.109375.003906.164062.007812l.058594.003906.113281.003906h.058594l.121094.007813h.054687c.035157 0 .074219.003906.113281.003906l.0625.003907.125.003906.042969.003906.167969.003906.058594.003906c.039062 0 .070312.003907.109375.003907l.078125.003906.089844.003906h.082031l.089843.003907.078126.003906.097656.003906.074218.003906.160157.003906.054687.003907.113282.003906h.074218l.101563.003906.066406.003907.101563.003906h.078124l.089844.003906.082032.003906.09375.003906.121093.003907.117188.003906h.066406l.101563.003906.078124.003907.09375.003906h.074219c.03125 0 .066407.003906.097657.003906l.078124.003906.128907.003906h.035156l.167969.003907.050781.003906c.039063 0 .085937 0 .125.003906h.0625l.105469.003907.070312.003906h.113282l.054687.003906.140625.003906h.03125l.175781.003906.015625.003907c.050782 0 .105469 0 .152344.003906h.066406l.105469.003906h.066406l.109375.003907.066406.003906h.117188l.054688.003906.125.003906h.082031l.140625.003906h.046875l.121093.003907h.066407l.109375.003906h.066406l.101562.003906.070313.003907h.171875l.171875.003906.046875.003906h.125l.0625.003906h.109375l.070313.003906h.167968l.121094.003907h.058594l.167968.003906h.039063l.128906.003906h.078125l.097656.003907h.074219l.097657.003906h.078124.105469l.066407.003906h.109374l.109376.003906h.179687c.039063.003906.078125.003906.117187.003906h.066407l.105469.003907h.070312.105469.070312l.15625.003906h.007813c.058594 0 .117187 0 .175781.003906h.179687l.0625.003907h.105469.179688l.066406.003906h.113281.0625l.171875.003906h.234375l.113282.003906h.363281l.050781.003906h.152344.242187l.132813.003907h.421875c.039062 0 .074219.003906.113281.003906h.65625l.101562.003906h.0625.128907.816406l.117187.003907h.234376c23.859374-.105469 47.667968-2.257813 71.15625-6.433594l.195312-.035156.0625-.011719.140625-.023438.0625-.011719.152344-.027343.042969-.007813.191406-.03125.070312-.011718c.042969-.007813.082032-.015626.128906-.023438l.074219-.011719c.042969-.007812.082031-.015625.125-.023437l.070313-.011719.164062-.03125.078125-.011719c.042969-.007812.089844-.015625.136719-.023437l.09375-.019531.097656-.015626.09375-.015624.113282-.023438.078124-.011719.183594-.03125.066406-.015625.125-.019531.078126-.015625c.039062-.007812.085937-.015625.121093-.023438l.078125-.011718.121094-.023438.148438-.027344.101562-.015624.097656-.019532.089844-.015625.109375-.019531.082031-.015625.15625-.027344c.039063-.007812.082032-.015625.117188-.023437l.097656-.015625.097656-.019531.097656-.015626.085938-.015624.109375-.023438.070313-.011719.199218-.035156.085938-.015625.105468-.019531.085938-.015625.101562-.019532.089844-.015624.148438-.027344c.042968-.007813.082031-.015625.128906-.023438l.085938-.015625.097656-.019531.105468-.019531c.027344-.007813.054688-.011719.082032-.015625.035156-.007813.074218-.015625.109375-.019532l.078125-.015624c.0625-.011719.140625-.027344.203125-.039063l.070312-.011719.117188-.023437.066406-.011719.121094-.023438.054687-.011718c.148438-.027344.285156-.050782.429688-.078125l.214844-.042969c.152343-.027344.292968-.054688.445312-.082031l.035156-.007813.132813-.027344.050781-.007812.125-.023438.058594-.011718.441406-.085938.015625-.003906c.054687-.007812.097656-.015625.152344-.027344l.023437-.003906c.152344-.03125.316406-.0625.464844-.089844l.15625-.03125.046875-.007812c.203125-.042969.414063-.082032.621094-.121094l.023437-.003906c.214844-.042969.417969-.085938.632813-.125l.023437-.003906.144532-.03125.027343-.003907c.210938-.042969.425781-.085937.640625-.128906h.003906l.164063-.03125c108.332031-21.644531 186.628906-77.617187 216.878906-141.816406.089844-.191407.179688-.386719.269531-.578125.089844-.191406.183594-.386719.273438-.582032 2.539062-5.492187 4.75-11.128906 6.617188-16.886718l.003906-.003906.035156-.109376c.082031-.261718.164062-.519531.246094-.777343l.003906-.011719.03125-.101562.007812-.015626.027344-.097656.003906-.015625c.070313-.21875.136719-.433593.207032-.652343l.003906-.019532.03125-.09375.003906-.023437.03125-.09375.003906-.019531.03125-.097657.003907-.011719c.042969-.140624.085937-.28125.128906-.425781l.007813-.015625.023437-.085937.011719-.035157.027344-.085937.007812-.027344.027344-.089843.007812-.027344.027344-.09375.003906-.011719c.042969-.144531.085938-.285156.125-.429687l.003906-.011719.027344-.085938.011719-.039062.019531-.074219.015625-.046875.019531-.070313.015626-.046874.019531-.078126.011719-.035156.023437-.082031.007813-.023437.054687-.1875.003906-.015626.023438-.078124.011719-.042969.019531-.070313.015625-.050781.019531-.070313.015625-.050781.019531-.066406.011719-.050781.019531-.070313.015625-.054687.019532-.0625.015624-.054688.039063-.132812.011719-.046875.019531-.066407.015625-.054687.015625-.066406.015625-.054688.019531-.066406.015625-.050781.019532-.070313.011718-.050781.019532-.066406.015624-.054688.019532-.066406.011718-.050781.039063-.144531.011719-.039063.015625-.058594.019531-.0625.011719-.054687.019531-.066406.015625-.0625.015625-.058594.019531-.058594.015625-.058594.015625-.066406.015625-.054688.015625-.0625.015625-.058593.035156-.125.015626-.050781.015624-.0625.03125-.117188.015626-.066406.03125-.117188.019531-.066406.011719-.050781.019531-.070313.011719-.050781.019531-.066406.015625-.058594.023437-.089844.023438-.085937.011719-.058594.019531-.066406.011719-.054688.019531-.066406.015625-.058594.015625-.0625.015625-.058594.011718-.058593.019532-.0625.015625-.066407.011719-.050781.03125-.125.03125-.117187.007812-.039063.023438-.082031.042968-.171875.019532-.074219.011718-.050781.019532-.074219.011718-.046875.019532-.082031.007812-.039062.023438-.089844.007812-.03125.03125-.121094.007812-.035156.019532-.085938.011718-.042968.019532-.082032.011718-.046875.019532-.074219.007812-.046874.03125-.125.019532-.082032.011718-.039062.023438-.09375.003906-.027344.03125-.125.003906-.019531.023438-.101563.011718-.042968.019532-.082032.007812-.042968.019532-.078126.011718-.042968.019532-.085938.007812-.035156.019531-.089844.007813-.035156.027344-.109375.003906-.011719c.019531-.085937.035156-.164062.058594-.25l.003906-.027344.023437-.097656.007813-.035156.019531-.085938.007813-.039062.019531-.089844.007812-.03125.023438-.101562.003906-.023438.027344-.117187.003906-.003907c.019531-.085937.035156-.167968.054687-.253906l.003907-.015625.023437-.109375.007813-.027344.019531-.09375.007812-.035156.019532-.089844.007812-.035156.019532-.09375.007812-.03125.027344-.117187v-.003907c.019531-.085937.035156-.167968.054687-.253906l.003907-.015625.023437-.105469.007813-.03125.019531-.09375.007812-.03125.019531-.09375.003907-.035156.023437-.09375.003906-.027344.023438-.105468.003906-.019532c.015625-.085937.035156-.164062.050782-.25l.007812-.023437.019531-.101563.003907-.027343.019531-.097657.007812-.03125.019531-.09375.007813-.03125.019531-.097656.003906-.027344.023438-.113281.003906-.007812c.015625-.085938.035156-.171875.050782-.257813l.027343-.125.003907-.019531.019531-.105469.003906-.023437.023437-.101563.003907-.023437.019531-.105469.003906-.023438.023438-.109374v-.015626c.019531-.085937.035156-.167968.050781-.253906l.003906-.007812.019531-.117188.007813-.019531.019531-.101563.003906-.03125.019532-.097656.003906-.027344.019531-.101562.003907-.023438.023437-.109374.003906-.015626c.023438-.128906.046875-.25.070313-.378906l.003906-.015625.019531-.109375.003907-.023437.019531-.101563.003906-.027344.019531-.105468.003906-.015625.019532-.121094.003906-.003906c.023438-.132813.046875-.253907.066406-.382813l.003906-.019531.019532-.105469.003906-.027344.019531-.097656.003907-.027344.019531-.101562.003906-.023438.019531-.121093c.023438-.128907.046875-.257813.066406-.386719l.003907-.011719.019531-.113281.003906-.019531.019532-.105469.003906-.023438.015625-.105468.003906-.019532.019531-.113281.003906-.011719c.019532-.128906.039063-.253906.0625-.382812v-.011719l.019532-.109375.003906-.03125.015625-.097656.003906-.027344.019531-.101562.003907-.019532.015625-.121093.003906-.003907c.019531-.128906.039062-.257812.058594-.386718l.003906-.007813.015625-.117187.003906-.019532.015625-.101562.007813-.03125.015625-.097656v-.023438l.019531-.109375v-.019531c.023437-.128906.039063-.25.058594-.378906l.003906-.015625.019531-.136719.015625-.097656.003907-.03125.015624-.09375.003907-.03125.015625-.105469.003906-.015625c.015625-.128906.035156-.253906.054688-.382812v-.011719l.015624-.113281.003907-.019532.015625-.105468.003906-.027344.011719-.101563.003906-.023437.015625-.105469.003906-.019531c.019532-.132813.035156-.253906.050782-.382813l.003906-.007812.015625-.117188.003906-.027343.011719-.09375.003906-.035157.011719-.09375.003906-.027343.015625-.105469.003906-.019531.015625-.121094v-.003906c.011719-.089844.023438-.171876.035157-.257813v-.011719l.015624-.109375.015626-.125.003906-.035156.015625-.125.011719-.097656.003906-.027344.015625-.113281v-.007813c.011719-.089843.019531-.171875.03125-.257812v-.011719l.015625-.113281.003906-.023438.011719-.101562.003906-.027344.011719-.097656.003906-.03125.011719-.101563v-.019531l.015625-.125c.011718-.085937.019531-.171875.03125-.257813v-.011718l.011718-.113282.003907-.023437.011719-.101563.003906-.027343.011718-.101563.003907-.023437.011719-.105469v-.023438l.011718-.113281.003906-.011719c.007813-.085937.019532-.167968.027344-.257812v-.003906l.011719-.117188.003906-.027344.011719-.09375.003906-.035156.007813-.089844.003906-.039062.007813-.089844.003906-.035156.011718-.101562.003907-.019532c.007812-.089844.015625-.167968.023437-.257812l.003906-.007813.011719-.113281v-.03125l.011719-.089844.003906-.039062.007813-.089844.003906-.03125.007813-.097656.003906-.027344.011718-.113281v-.011719c.007813-.085938.015626-.167969.023438-.257812v-.003907l.011719-.121093.003906-.023438.007813-.101562.003906-.027344.007812-.09375.003906-.035156.007813-.09375.003906-.03125.007813-.113282.003906-.007812c.007812-.085938.011719-.171875.019531-.257813v-.003906l.011719-.121094.003906-.023437.007813-.101563v-.027343l.007812-.101563.003907-.027344.007812-.097656.003906-.03125.007813-.101563v-.019531c.007812-.085937.015625-.167969.023437-.257812v-.003907l.007813-.117187.003906-.027344.007813-.101562v-.023438l.007812-.101562.003906-.027344.007813-.101563v-.023437l.007812-.105469.003907-.023437c.007812-.128907.019531-.246094.027343-.378907v-.023437l.007813-.101563.003906-.03125.003906-.09375.003906-.03125.007813-.09375v-.035156l.007813-.097656v-.023438l.007812-.117187v-.007813l.011719-.128906v-.003906l.007812-.117188v-.035156l.007813-.089844v-.039062l.007812-.085938v-.039062l.007813-.09375v-.03125l.007812-.101562v-.019532c.007813-.089844.011719-.171875.015625-.257812l.007813-.121094v-.03125l.007812-.089844v-.046875l.003907-.078125.003906-.042968.003906-.082032.003906-.046875.003906-.082031v-.039062l.007813-.097657v-.027343l.007813-.125v-.003907l.003906-.117187.003906-.039063.003906-.085937v-.042969l.003906-.078125.003907-.046875.003906-.078125v-.046875l.003906-.078125.003907-.046875.003906-.101563v-.019531l.007812-.125v-.015625l.003906-.109375v-.039062l.003907-.082031.003906-.050782.003906-.070312v-.054688l.003907-.070312v-.050782l.003906-.078124.003906-.046876.003906-.085937v-.035156l.003906-.125v-.007813l.003907-.113281.003906-.046875v-.074219l.003906-.054687v-.070313l.003907-.050781.003906-.074219v-.050781l.003906-.078125v-.042969l.003906-.097656v-.023438l.003906-.128906v-.003906l.003907-.117188v-.035156l.003906-.089844v-.042968l.003906-.082032v-.121093l.003907-.050781v-.121094l.003906-.085938v-.039062l.007812-.246094v-.121094l.003906-.046875v-.125l.003907-.078125v-.171875l.003906-.089843v-.03125c0-.085938.003906-.160157.003906-.25v-.167969l.003907-.078125v-.292969l.003906-.082031v-2.082032l-.003906-.046874v-.285157l-.003907-.085937v-.296875l-.003906-.078125v-.171875l-.003906-.074219v-.132812l-.003907-.042969v-.125l-.003906-.121094v-.125l-.003906-.046875v-.121094l-.003906-.082031v-.046875l-.003906-.074219v-.050781l-.003907-.070312v-.128907l-.003906-.046875v-.078125l-.003906-.046875v-.121094l-.003907-.125-.003906-.027343v-.097657l-.003906-.039062v-.082031l-.003906-.050781v-.070313l-.003906-.054687v-.066407l-.003907-.058593v-.066407l-.003906-.054687v-.070313l-.003906-.054687-.003907-.074219v-.046875l-.003906-.101562v-.019532l-.003906-.121094-.003906-.039062-.003906-.085938v-.046874l-.003907-.074219-.003906-.050781v-.070313l-.003906-.054687-.003907-.070313v-.050781l-.003906-.074219-.003906-.050781-.003906-.074219v-.046875l-.003906-.082031-.003907-.042969-.003906-.109375v-.007813l-.007813-.125v-.039062l-.003906-.082031-.003906-.050781-.003906-.070313v-.054687l-.003906-.070313-.003907-.050781-.003906-.070313-.003906-.050781-.003907-.074219v-.046875l-.003906-.074218-.003906-.050782-.003906-.078125-.003906-.042969-.003907-.105468-.003906-.015625-.003906-.121094-.003907-.039063-.003906-.082031-.003906-.050781-.003906-.070312-.003906-.046876-.003907-.078124-.003906-.046876-.003906-.074218-.003907-.050782-.003906-.066406-.003906-.058594-.003906-.066406-.003906-.050781-.003907-.078125-.003906-.046875-.003906-.082031-.003907-.035156-.007812-.117188-.003906-.054688-.003906-.070312-.003907-.050781-.003906-.070313-.007813-.054687-.003906-.066407-.003906-.054687-.003906-.0625-.003906-.058594-.003907-.066406-.003906-.054687-.007813-.0625-.003906-.058594-.003906-.0625-.003906-.058594-.007813-.070312v-.046876l-.011719-.117187-.003906-.050781-.003906-.070313-.007812-.054687-.003907-.066406-.003906-.054688-.007813-.066406-.003906-.058594-.003906-.0625-.003906-.054688-.007813-.066406-.003906-.054687-.003906-.066407-.007813-.054687-.003906-.066406-.003906-.054688-.007813-.074219-.003906-.042968-.011719-.117188-.003906-.046875-.003906-.074219-.007813-.054687-.003906-.066406-.003906-.054688-.007813-.066406-.003906-.054687-.007812-.066407-.003907-.050781-.007812-.070312-.003907-.050782-.007812-.066406-.003906-.054688-.007813-.066406-.003906-.054687-.007813-.070313-.003906-.046875-.011718-.117187-.003907-.050782-.007812-.066406-.007813-.058594-.003906-.0625-.007812-.054687-.003907-.0625-.007812-.0625-.003907-.054687-.007812-.066407-.007812-.050781-.003907-.070312-.007812-.050782-.007813-.0625-.003906-.058594-.007812-.0625-.003907-.054687-.007812-.0625-.007813-.066406-.011718-.101563-.007813-.066406-.003906-.050781-.007813-.066407-.007812-.058593-.007813-.0625-.003906-.058594-.007813-.054687-.007812-.0625-.007812-.058594-.003907-.0625-.007812-.054688-.007813-.0625-.015625-.117187-.003906-.066407-.007813-.050781-.011718-.097656-.007813-.070313-.007812-.066406-.007813-.054687-.007812-.066407-.007813-.054687-.003906-.058594-.007813-.066406-.007812-.050781-.007812-.0625-.015626-.117188-.007812-.066406-.007812-.046875-.007813-.074219-.003906-.050781-.011719-.070313-.003906-.042968-.011719-.089844-.011719-.074219-.007812-.070312-.023438-.175781-.007812-.0625-.007813-.054688-.015625-.117188-.007812-.0625-.007813-.058593-.007812-.054688-.007813-.0625-.015625-.117187-.007812-.050782-.011719-.066406-.003906-.035156-.023438-.167969-.003906-.023437-.007812-.074219-.007813-.046875-.007813-.0625-.007812-.050781-.011719-.066407-.007812-.050781-.007813-.066406-.007812-.050781-.007813-.066406-.007812-.050782-.011719-.066406-.007812-.046875-.007813-.070313-.007813-.035156-.011718-.082031v-.011719l-.027344-.167968-.003906-.046876-.011719-.0625-.007813-.050781-.007812-.066406-.007812-.050781-.011719-.066406-.007813-.046876-.011718-.066406-.007813-.050781-.007813-.066406-.007812-.050781-.011719-.066407-.019531-.117187-.003906-.039063-.011719-.074219-.003906-.027343c-.011719-.058594-.019531-.117188-.03125-.171875l-.003907-.023438-.011718-.074218-.003906-.042969-.011719-.070313-.007813-.042968-.011718-.074219-.007813-.042969-.019531-.117188-.011719-.066406-.007813-.050781-.011718-.066406-.007813-.042969-.011719-.074219-.003906-.027343c-.023437-.132813-.046875-.265626-.070312-.398438l-.003906-.019531-.015626-.085938-.003906-.03125-.011718-.078125-.007813-.035156-.011719-.074219-.007812-.042969-.015625-.074218-.003907-.035156-.015624-.082032-.003907-.027344-.015625-.085937-.003906-.015625c-.023438-.136719-.050781-.273438-.074219-.414062l-.003906-.011719-.015625-.085938-.003906-.03125-.015625-.078125-.007813-.035156-.015625-.078125-.003906-.03125-.015625-.082031-.007812-.03125-.011719-.082032-.007813-.03125-.015625-.082031-.003906-.019531c-.027344-.132812-.050781-.269531-.078125-.402344l-.003906-.019531-.015625-.085937-.007813-.027344-.015625-.085938-.003906-.027344-.015625-.082031-.007812-.027343-.015626-.085938-.003906-.023438-.019531-.089843-.003906-.019531-.019531-.09375v-.007813c-.035157-.175781-.070313-.351563-.109376-.527344v-.011719l-.019531-.09375-.003906-.019531-.019531-.085937-.003906-.027344-.019532-.085938-.003906-.023437-.019531-.085937-.003907-.023438c-.050781-.246094-.105468-.492188-.160156-.734375v-.007813l-.023437-.097656v-.015625l-.023438-.09375v-.011719l-.023437-.101562v-.003906c-.046875-.210938-.097656-.421875-.144532-.632813v-.011719l-.023437-.097656-.003906-.011718-.023438-.097657v-.007812l-.023437-.101563c0-.003906 0 0 0-.003906l-.023438-.105469h-.003906c-.066406-.285156-.132812-.570312-.199219-.851562l-.003906-.003907-.023437-.105468c-2.347657-9.679688-6.078126-18.972656-11.074219-27.585938-6.242188-10.792968-17.773438-17.441406-30.246094-17.425781zm0 0" fill="#df8d00"/><path d="m294.71875 264.320312c-14.257812-14.257812-43.152344-8.476562-64.539062 12.910157-21.386719 21.386719-27.164063 50.28125-12.90625 64.539062 14.257812 14.257813 43.152343 8.476563 64.539062-12.910156s27.164062-50.28125 12.90625-64.539063zm0 0" fill="#ffef7d"/><path d="m256 128.5c0-44.984375-20.839844-81.453125-46.546875-81.453125-25.703125 0-46.542969 36.46875-46.542969 81.453125 0 44.988281 20.839844 81.453125 46.542969 81.453125 25.707031 0 46.546875-36.464844 46.546875-81.453125zm0 0" fill="#caefb7"/><path d="m209.453125 47.046875h-.148437c-.300782 0-.601563.007813-.902344.019531l-.0625.003906h-.050782c-.039062.003907-.078124.003907-.113281.007813h-.003906c-.328125.011719-.65625.035156-.984375.0625-5.976562.632813-10.414062 5.832031-10.097656 11.832031.332031 6.34375 5.554687 11.324219 11.902344 11.355469.09375 0 .1875-.003906.28125-.003906l.179687-.003907c6.753906 0 23.273437 20.386719 23.273437 58.179688 0 34.910156-14.589843 56.371094-22.410156 58.085938-6.277344 1.375-10.257812 7.574218-8.882812 13.855468 1.367187 6.261719 7.546875 10.238282 13.816406 8.890625 13.257812-2.878906 24.78125-15.515625 32.164062-33.675781.296876-.734375.585938-1.472656.871094-2.222656l.039063-.101563.035156-.101562.003906-.003907c.125-.339843.253907-.683593.378907-1.027343v-.003907c.027343-.066406.050781-.136718.074218-.203124.152344-.417969.296875-.832032.445313-1.25v-.003907c.121093-.351562.242187-.699219.359375-1.050781v-.003906c.132812-.390625.257812-.777344.386718-1.171875l.03125-.101563.003907-.011718.03125-.097657.003906-.007812.03125-.097657.003906-.007812c.089844-.28125.179688-.570312.269531-.855469l.003907-.015625.027343-.089844.003907-.015624.027343-.089844.007813-.019532.027344-.09375.003906-.011718.027344-.09375.007812-.015625.027344-.097657.003906-.003906c.078125-.253906.152344-.503906.226563-.761718l.003906-.007813.03125-.097656v-.011719l.03125-.097656.003906-.011719.027344-.09375.003906-.019531.027344-.085938.003906-.023437.027344-.09375.003906-.007813c.074219-.257812.148438-.511718.21875-.769531l.003906-.003906.027344-.105469.003906-.007812.027344-.097657.003906-.015625.027344-.09375.003906-.015625.027344-.09375.003906-.015625.027344-.101562v-.003906l.03125-.105469v-.007813c.050782-.183594.101563-.367187.152344-.554687l.03125-.109375.003906-.011719.027344-.097656.003906-.015625.023438-.089844.003906-.023438.027344-.089843.027344-.109375.007812-.019532.023438-.097656.003906-.011718.027344-.101563v-.007813c.039062-.148437.078124-.296874.121093-.445312v-.003906l.027344-.109375.003906-.007813.023438-.097656.007812-.027344.019531-.082031.007813-.027344.019531-.085937.007813-.023438.023437-.089844.003906-.019531.023438-.089843.003906-.023438.027344-.109375.027344-.105469.003906-.003906c.035156-.148438.074219-.300781.113281-.453125v-.003906l.023438-.105469.007812-.019531.019531-.089844.007813-.027344.019531-.082031.007813-.027344.019531-.085937.007812-.027344.019532-.082031.027344-.109375.007812-.039063.019531-.074218.007813-.035157.027344-.109375.023437-.101562.003906-.007813c.027344-.113281.050781-.226562.078125-.339843l.003906-.007813.023438-.105469.027344-.109375.003906-.03125.019531-.082031.007813-.027344.019531-.085937.007813-.027344.019531-.085937.007812-.027344.019531-.085938.003907-.027344.019531-.089843.007812-.023438.019532-.09375.03125-.125v-.003906c.023437-.117187.050781-.230469.078125-.347656l.023437-.113281.003906-.007813.023438-.105469.003906-.015625.023438-.117187.019531-.089844.007813-.027344.019531-.089844.003906-.023437.019531-.085937.007813-.03125.019531-.089844.003906-.019532.019532-.09375.003906-.023437c.035156-.152344.066406-.304687.097656-.457031l.023438-.117188.007812-.023437.015625-.085938.007813-.039062.015624-.074219.007813-.035156.019531-.082032.003906-.03125.019532-.085937.003906-.027344.019531-.082031.007813-.035156.015625-.085938.003906-.027344.019531-.09375.007813-.019531.019531-.109375v-.003906c.027344-.117188.046875-.234375.074219-.351562v-.003907l.019531-.109375.003906-.019531.019532-.09375.007812-.035156.015625-.078125.003906-.035156.015625-.082032.007813-.035156.015625-.078125.007812-.035156.023438-.117188.015625-.085937.003906-.027344.019531-.101562.003906-.011719c.027344-.15625.058594-.3125.089844-.46875l.003906-.023438.015626-.089843.007812-.035157.015625-.078125.003906-.039062.023438-.117188.011719-.078125.007812-.039062.015625-.074219.007813-.042969.019531-.117187.015625-.074219.003906-.039063.023438-.117187.015624-.082031.003907-.03125.042969-.234375v-.015625l.019531-.101563.019531-.117187.007812-.03125.011719-.082032.007813-.039062.011718-.078125.023438-.117187.003906-.039063.015625-.078125.003907-.039062.023437-.117188.011719-.078125.007812-.039063.011719-.082031.007813-.035156.015624-.101563.003907-.011718.039062-.238282v-.007812l.019531-.109375.003907-.027344.015625-.089843.003906-.03125.011719-.082032.027343-.164062.011719-.074219.007813-.039063.011718-.078124.007813-.042969.011719-.074219.003906-.042969.011719-.074219.007812-.046874.011719-.074219.007812-.039063.011719-.089844.007813-.027343.015625-.105469v-.011719l.019531-.121093.003906-.019532.015625-.097656.003907-.035156.011718-.082032.007813-.039062.011719-.078125.003906-.046875.011718-.070312.007813-.042969.011719-.078125.003906-.042969.011719-.074219.007812-.042968.011719-.070313.007812-.050781.007813-.066406.007813-.050782.011718-.074218.003906-.042969.015626-.089844.003906-.027344.015625-.113281v-.003906l.035156-.242188.003906-.03125.011719-.085937.003906-.039063.011719-.078125.007813-.046875.007812-.074218.007812-.042969.011719-.074219.003907-.042969.011718-.078125.003906-.042968.011719-.078126.007813-.039062.011718-.085938.003907-.03125.011719-.089843.003906-.03125.011718-.101563.003907-.019531c.011719-.082031.019531-.160156.03125-.242187v-.003907l.015625-.113281.003906-.03125.011719-.089844.003906-.03125.011719-.089844.003906-.039062.011719-.078125.003906-.042969.011719-.078125.003906-.042969.011719-.074218.003906-.046875.007813-.070313.007812-.050781.007812-.070313.007813-.050781.007813-.074219.003906-.042968.015625-.101563v-.015625c.011719-.078125.019531-.160156.03125-.242187l.003906-.042969.007813-.074219.007812-.054687.007812-.066406.007813-.054688.003906-.0625.007813-.058594.007812-.066406.007813-.050781.007812-.070313.003907-.046875.007812-.074219.007812-.046874.007813-.074219.003906-.046875.007813-.074219.007812-.046875.007813-.082031.003906-.035157.011719-.09375.003906-.027343c.007812-.082031.015625-.164063.023438-.246094l.003906-.007813.011718-.113281v-.023437l.011719-.097656.003907-.035157.007812-.085937.007812-.042969.011719-.117187.007813-.082032.003906-.046875.007812-.070312.003907-.050781.007812-.070313.003907-.054687.007812-.070313.003906-.042969.011719-.085937.003906-.039063.007813-.09375.003906-.027344.011719-.113281v-.007812l.011719-.125v-.011719l.011718-.109375.003906-.035156.007813-.085938.011719-.117187.003906-.050782.007812-.078124.003907-.042969.007812-.074219.003907-.050781.007812-.074219.003906-.046875.007813-.074219.003906-.046875.003906-.082031.003907-.039062.007812-.085938.003906-.035156.007813-.097656.003906-.027344.007813-.109375.003906-.011719.007812-.121094.003906-.039062.007813-.085938.003906-.046875.007813-.074219.003906-.046874.003906-.074219.007813-.050781.003906-.070313.003906-.054687.007813-.070313.003906-.050781.003906-.074219.003906-.042969.007813-.082031.003906-.042969.003907-.082031.003906-.042969.007812-.078125.003906-.042969.007813-.097656v-.023437l.007813-.113281.003906-.011719.007812-.125.003906-.023438.007813-.101562v-.035157l.007813-.085937.003906-.046875.003906-.074219.003906-.054687.003906-.070313.003907-.050781.007812-.070312.003907-.050782.003906-.074218.003906-.050782.003906-.070312.003906-.054688.003907-.074218.003906-.046876.007813-.082031v-.042969l.007812-.089843v-.03125l.007812-.109375.003907-.015625.003906-.121094.003906-.046875.003907-.078125.003906-.054687.003906-.070313.003906-.054687.003906-.066407.003907-.058593.003906-.066407.003906-.054687.003907-.070313.003906-.054687.003906-.066406.003906-.058594.003906-.066406.003907-.058594.003906-.066406v-.054688l.007813-.078125v-.046875l.007812-.082031v-.039063c.003906-.085937.007812-.167968.015625-.253906v-.007812l.003906-.113282.003907-.042968.003906-.082032.003906-.050781v-.070313l.003906-.054687.003906-.070313.003907-.054687.003906-.070313v-.054687l.003906-.074219.003907-.046875.003906-.078125v-.046875l.003906-.078125.003906-.050781.003906-.078125v-.042969l.007813-.097656v-.027344l.003906-.121093v-.003907l.007813-.128906v-.023437l.003906-.097657v-.046875l.003906-.082031.003906-.042969.003907-.082031v-.046875l.003906-.078125v-.046875l.003906-.074219.003907-.054687v-.074219l.003906-.050781v-.070313l.003906-.058593.003906-.066407v-.054687l.003906-.078125v-.046875l.003907-.101563v-.023437l.003906-.113282.003906-.023437v-.117187l.003907-.039063v-.082031l.003906-.050782v-.078124l.003906-.050782v-.070312l.003906-.058594v-.070312l.003906-.054688v-.070312l.003907-.054688v-.125l.003906-.074219v-.054687l.003906-.070313v-.054687l.003907-.074219v-.132813l.003906-.042968v-.09375l.003906-.058594v-.140625l.003906-.085937v-.125l.003906-.054688v-.128906l.003907-.070313v-.179687l.003906-.070313v-.1875l.003906-.066406v-.265625l.003907-.042969v-.296875l.003906-.082031v-.4375l.003906-.074219v-.816406c0-44.984375-20.839844-81.453125-46.546875-81.453125zm0 0" fill="#9fe27c"/><path d="m232.726562 58.683594c0 6.425781-5.210937 11.636718-11.636718 11.636718-6.425782 0-11.636719-5.210937-11.636719-11.636718 0-6.429688 5.210937-11.636719 11.636719-11.636719 6.425781 0 11.636718 5.207031 11.636718 11.636719zm0 0" fill="#4da900"/><path d="m349.027344 241.414062c-.910156-6.136718-12.042969-9.566406-24.863282-7.65625-12.816406 1.910157-22.46875 8.429688-21.554687 14.566407s12.046875 9.5625 24.863281 7.65625c12.820313-1.910157 22.46875-8.433594 21.554688-14.566407zm0 0" fill="#ffe754"/><path d="m290.910156 209.953125c-6.429687.007813-11.644531-5.195313-11.648437-11.621094-.007813-6.429687 5.195312-11.644531 11.625-11.648437h.023437c44.984375 0 81.453125-36.46875 81.453125-81.457032 0-44.984374-36.46875-81.453124-81.453125-81.453124-44.988281 0-81.457031 36.46875-81.457031 81.453124.007813 6.425782-5.195313 11.644532-11.621094 11.648438-6.429687.007812-11.644531-5.195312-11.648437-11.625 0-.007812 0-.015625 0-.023438 0-57.839843 46.886718-104.726562 104.726562-104.726562s104.726563 46.886719 104.726563 104.726562c0 57.839844-46.886719 104.726563-104.726563 104.726563zm0 0" fill="#8ccd5b"/><path d="m290.910156 209.953125c-6.429687.007813-11.644531-5.195313-11.648437-11.621094-.007813-6.429687 5.195312-11.644531 11.625-11.648437h.023437c18.519532.0625 36.496094-6.261719 50.898438-17.910156 5.007812-4.023438 12.328125-3.222657 16.351562 1.785156 4.023438 5.007812 3.222656 12.328125-1.785156 16.351562-18.574219 14.886719-41.660156 23.015625-65.464844 23.042969zm0 0" fill="#caefb7"/></svg>